SplineFontDB: 3.0
FontName: Behdad-Regular
FullName: Behdad Regular
FamilyName: Behdad
Weight: Regular
Copyright: Copyright (c) 2016 Copyright Holder (info@font-store.ir), with Reserved Font Name "Behdad" \n This font is a gift to Behdad Esfahbod from Saleh Souzanchi 
UComments: "2015-5-13: Created with FontForge (http://fontforge.org)"
Version: Version:0.0.2;RFB:1.2.5;Building:2016-05-06 11:03:07.582691
FONDName: RITA
ItalicAngle: 0
UnderlinePosition: 500
UnderlineWidth: 59
Ascent: 800
Descent: 500
InvalidEm: 0
sfntRevision: 0x00010000
LayerCount: 2
Layer: 0 0 "Back" 1
Layer: 1 0 "Fore" 0
PreferredKerning: 4
XUID: [1021 828 -1901974348 32649]
StyleMap: 0x0040
FSType: 0
OS2Version: 0
OS2_WeightWidthSlopeOnly: 0
OS2_UseTypoMetrics: 0
CreationTime: 1431477301
ModificationTime: 1462516387
PfmFamily: 33
TTFWeight: 400
TTFWidth: 5
LineGap: 0
VLineGap: 0
Panose: 2 0 5 3 0 0 0 0 0 0
OS2TypoAscent: 800
OS2TypoAOffset: 0
OS2TypoDescent: -500
OS2TypoDOffset: 0
OS2TypoLinegap: 0
OS2WinAscent: 1100
OS2WinAOffset: 0
OS2WinDescent: 700
OS2WinDOffset: 0
HheadAscent: 1100
HheadAOffset: 0
HheadDescent: -700
HheadDOffset: 0
OS2SubXSize: 780
OS2SubYSize: 839
OS2SubXOff: -107
OS2SubYOff: 168
OS2SupXSize: 780
OS2SupYSize: 839
OS2SupXOff: 369
OS2SupYOff: 575
OS2StrikeYSize: 59
OS2StrikeYPos: 310
OS2Vendor: 'RITA'
OS2CodePages: 00000040.00000000
OS2UnicodeRanges: 80002003.80002000.00000008.00000000
MacStyle: 0
Lookup: 4 1 1 "'ccmp' Glyph Composition/Decomposition in Arabic lookup 5" { "'ccmp' Glyph Composition/Decomposition in Arabic lookup 5-1"  } ['ccmp' ('DFLT' <'dflt' > 'arab' <'dflt' > ) ]
Lookup: 1 9 0 "'isol' Isolated Forms in Latin lookup 1" { "'isol' Isolated Forms in Latin lookup 1-1"  } ['isol' ('DFLT' <'dflt' > 'arab' <'dflt' > ) ]
Lookup: 1 9 0 "'fina' Terminal Forms in Arabic lookup 3" { "'fina' Terminal Forms in Arabic lookup 3-1"  } ['fina' ('DFLT' <'dflt' > 'arab' <'dflt' > ) ]

StartChar: _.alef.isol
Encoding: 65536 -1 0
GlifName: _.alef.isol
Width: 240
VWidth: 1304
GlyphClass: 2
Flags: HMW
LayerCount: 2
Fore
SplineSet
75 -0 m 1
 75 780 l 2
 75 793 97 800 119 800 c 0
 142 800 165 793 165 780 c 2
 165 -0 l 1
 150 -5 134 -8 118 -8 c 0
 103 -8 88 -5 75 -0 c 1
EndSplineSet
Colour: ffda6b
EndChar

StartChar: _.alef.fina
Encoding: 65537 -1 1
GlifName: _.alef.fina
Width: 272
VWidth: 1304
GlyphClass: 2
Flags: HMW
LayerCount: 2
Fore
SplineSet
75 194 m 2
 75 780 l 2
 75 793 98 800 120 800 c 0
 141 800 163 795 165 782 c 1
 165 214 l 2
 165 127 219 100 266 100 c 2
 272 100 l 1
 272 -0 l 1
 266 -0 l 2
 116 0 75 99 75 194 c 2
EndSplineSet
Colour: ffda6b
EndChar

StartChar: _.alef_kotah.fina
Encoding: 65539 -1 3
GlifName: _.alef_kotah.fina
Width: 249
VWidth: 1304
GlyphClass: 2
Flags: HMW
LayerCount: 2
Fore
SplineSet
75 175 m 2
 75 700 l 1
 165 700 l 1
 165 194 l 2
 165 191 165 189 165 186 c 0
 165 122 191 100 236 100 c 2
 249 100 l 1
 249 -0 l 1
 99 0 75 80 75 175 c 2
EndSplineSet
Colour: ffda6b
EndChar

StartChar: _.beh.isol
Encoding: 65540 -1 4
GlifName: _.beh.isol
Width: 952
VWidth: 1304
GlyphClass: 2
UnlinkRmOvrlpSave: 1
Flags: HMW
LayerCount: 2
Fore
SplineSet
443 100 m 0
 635 100 780 153 780 233 c 0
 780 275 760 330 743 377 c 1
 743 383 l 2
 742 385 742 387 742 389 c 0
 742 411 782 434 809 434 c 0
 820 434 830 430 833 421 c 2
 839 407 l 1
 861 348 877 282 877 230 c 0
 876 87 695 0 445 -0 c 0
 226 0 92 57 76 199 c 0
 75 205 75 212 75 218 c 0
 75 273 97 332 115 381 c 0
 120 394 133 400 147 400 c 0
 172 400 200 382 200 356 c 0
 200 352 200 347 198 343 c 0
 184 307 171 272 171 235 c 0
 172 138 277 100 443 100 c 0
EndSplineSet
Colour: ffda6b
EndChar

StartChar: _.beh.fina
Encoding: 65541 -1 5
GlifName: _.beh.fina
Width: 1078
VWidth: 1304
GlyphClass: 2
UnlinkRmOvrlpSave: 1
Flags: HMW
LayerCount: 2
Fore
SplineSet
75 218 m 0
 75 259 88 307 109 363 c 1
 115 381 l 2
 120 394 133 400 147 400 c 0
 172 400 200 382 200 356 c 0
 200 352 200 347 198 343 c 2
 190 322 l 2
 178 289 171 261 171 235 c 0
 172 138 277 100 443 100 c 0
 562 100 705 127 795 164 c 1
 789 187 786 210 786 237 c 2
 786 290 l 2
 786 312 810 323 833 323 c 0
 855 323 876 314 876 295 c 2
 876 269 l 2
 876 158 932 100 1034 100 c 2
 1078 100 l 1
 1078 -0 l 1
 1033 -0 l 2
 947 0 879 28 836 80 c 1
 731 30 583 0 445 -0 c 0
 226 0 92 57 76 199 c 0
 75 205 75 212 75 218 c 0
EndSplineSet
Colour: ffda6b
EndChar

StartChar: _.beh.medi
Encoding: 65542 -1 6
GlifName: _.beh.medi
Width: 463
VWidth: 1304
GlyphClass: 2
UnlinkRmOvrlpSave: 1
Flags: HMW
LayerCount: 2
Fore
SplineSet
-50 50 m 0
 -50 76 -26 100 0 100 c 2
 73 100 l 2
 175 100 232 154 250 246 c 2
 263 306 l 2
 266 322 279 329 295 329 c 0
 321 329 353 310 350 290 c 2
 339 228 l 2
 334 200 327 174 317 149 c 1
 347 117 389 100 447 100 c 2
 463 100 l 1
 463 -0 l 1
 426 -0 l 2
 353 0 299 24 260 63 c 1
 221 24 167 0 93 -0 c 2
 0 -0 l 2
 -25 0 -50 24 -50 50 c 0
EndSplineSet
Colour: ffda6b
EndChar

StartChar: _.beh.init
Encoding: 65543 -1 7
GlifName: _.beh.init
Width: 384
VWidth: 1197
GlyphClass: 1
UnlinkRmOvrlpSave: 1
Flags: HMW
LayerCount: 2
Fore
SplineSet
-50 50 m 0
 -49 75 -26 100 -1 100 c 2
 46 100 l 2
 174 100 213 141 213 203 c 0
 213 253 188 316 163 383 c 0
 162 385 162 386 162 388 c 0
 162 410 204 434 232 434 c 0
 243 434 251 430 255 422 c 0
 286 343 309 264 309 197 c 0
 309 82 244 0 45 -0 c 2
 -1 -0 l 1
 -26 1 -50 24 -50 50 c 0
EndSplineSet
Colour: ffda6b
EndChar

StartChar: _.heh.isol
Encoding: 65544 -1 8
GlifName: _.heh.isol
Width: 821
VWidth: 1304
GlyphClass: 1
UnlinkRmOvrlpSave: 1
Flags: HMW
LayerCount: 2
Fore
SplineSet
500 299 m 1
 392 348 319 380 270 380 c 0
 207 380 183 354 146 300 c 0
 143 296 138 294 132 294 c 0
 112 294 82 314 82 337 c 0
 82 342 83 347 86 352 c 0
 144 443 191 480 267 480 c 0
 355 480 474 419 654 338 c 2
 716 310 l 2
 736 302 746 294 746 285 c 0
 746 278 740 269 727 258 c 0
 715 248 693 220 675 220 c 0
 344 214 174 26 174 -122 c 0
 174 -219 246 -299 393 -299 c 0
 448 -299 512 -288 588 -262 c 0
 592 -261 596 -261 599 -261 c 0
 621 -261 628 -283 628 -306 c 0
 628 -332 619 -360 611 -363 c 0
 530 -388 458 -399 395 -399 c 0
 183 -399 75 -273 75 -127 c 0
 75 40 216 235 500 299 c 1
EndSplineSet
Colour: ffda6b
EndChar

StartChar: _.heh.fina
Encoding: 65545 -1 9
GlifName: _.heh.fina
Width: 805
VWidth: 1304
GlyphClass: 1
UnlinkRmOvrlpSave: 1
Flags: HMW
LayerCount: 2
Fore
SplineSet
500 299 m 1
 390 348 319 380 270 380 c 0
 207 380 183 354 146 300 c 0
 143 296 138 294 132 294 c 0
 112 294 82 314 82 337 c 0
 82 342 83 347 86 352 c 0
 144 443 191 480 267 480 c 0
 355 480 474 419 654 338 c 2
 716 310 l 2
 736 302 746 294 746 285 c 0
 746 278 740 269 727 258 c 0
 715 248 693 220 675 220 c 0
 648 219 622 217 597 215 c 1
 625 102 687 100 792 100 c 0
 796 100 800 100 805 100 c 1
 805 -0 l 1
 613 0 544 17 502 199 c 1
 282 145 168 -1 167 -120 c 0
 167 -210 250 -298 403 -298 c 0
 456 -298 518 -287 588 -262 c 0
 590 -261 592 -261 594 -261 c 0
 613 -261 630 -297 630 -326 c 0
 630 -343 625 -358 611 -363 c 0
 529 -388 456 -400 393 -400 c 0
 181 -400 75 -273 75 -127 c 0
 75 40 216 235 500 299 c 1
EndSplineSet
Colour: ffda6b
EndChar

StartChar: _.heh.medi
Encoding: 65546 -1 10
GlifName: _.heh.medi
Width: 793
VWidth: 1304
GlyphClass: 1
UnlinkRmOvrlpSave: 1
Flags: HMW
LayerCount: 2
Fore
SplineSet
510 289 m 1
 389 344 311 380 258 380 c 0
 195 380 172 354 135 300 c 0
 132 296 126 294 120 294 c 0
 100 294 70 314 70 337 c 0
 70 342 71 347 74 352 c 0
 132 443 179 480 255 480 c 0
 343 480 462 419 642 338 c 2
 705 310 l 2
 725 302 735 294 735 285 c 0
 735 278 729 269 716 258 c 0
 704 248 681 220 663 220 c 0
 637 220 609 216 586 210 c 1
 614 101 676 100 780 100 c 0
 785 100 788 100 793 100 c 1
 793 -0 l 1
 610 0 539 16 497 176 c 1
 368 112 250 0 35 -0 c 2
 0 -0 l 2
 -25 0 -50 24 -50 50 c 0
 -49 76 -26 100 0 100 c 2
 28 100 l 2
 232 100 354 229 510 289 c 1
EndSplineSet
Colour: ffda6b
EndChar

StartChar: _.heh.init
Encoding: 65547 -1 11
GlifName: _.heh.init
Width: 810
VWidth: 1304
GlyphClass: 1
UnlinkRmOvrlpSave: 1
Flags: HMW
LayerCount: 2
Fore
SplineSet
510 289 m 1
 389 344 311 380 258 380 c 0
 195 380 172 354 135 300 c 0
 132 296 126 294 120 294 c 0
 100 294 70 314 70 337 c 0
 70 342 71 347 74 352 c 0
 132 443 179 480 255 480 c 0
 343 480 462 419 642 338 c 2
 705 310 l 2
 725 302 735 294 735 285 c 0
 735 278 729 269 716 258 c 0
 704 248 681 220 663 220 c 0
 448 220 337 0 35 -0 c 2
 0 -0 l 2
 -25 0 -50 24 -50 50 c 0
 -49 76 -26 100 0 100 c 2
 28 100 l 2
 232 100 354 229 510 289 c 1
EndSplineSet
Colour: ffda6b
EndChar

StartChar: _.sin.isol
Encoding: 65548 -1 12
GlifName: _.sin.isol
Width: 1387
VWidth: 1304
GlyphClass: 1
UnlinkRmOvrlpSave: 1
Flags: HMW
LayerCount: 2
Fore
SplineSet
75 -71 m 0
 75 -6 94 76 140 178 c 0
 145 191 155 196 167 196 c 0
 191 196 219 175 219 154 c 0
 219 151 219 147 217 144 c 0
 181 64 167 2 167 -46 c 0
 167 -175 274 -200 361 -200 c 0
 579 -199 664 -88 664 -12 c 0
 664 55 638 137 593 234 c 0
 591 239 589 243 589 248 c 0
 589 274 621 298 649 298 c 0
 660 298 670 295 678 287 c 1
 685 271 693 253 700 237 c 1
 700 236 l 1
 715 202 729 167 739 135 c 0
 749 111 772 99 800 99 c 0
 854 99 925 146 946 246 c 1
 946 255 l 1
 951 266 l 1
 951 271 l 1
 955 287 968 293 984 293 c 0
 1010 293 1040 276 1040 258 c 0
 1040 257 1040 257 1040 256 c 2
 1035 228 l 2
 1032 212 1031 197 1031 184 c 0
 1031 114 1066 88 1106 88 c 0
 1157 88 1217 130 1217 182 c 0
 1217 227 1188 298 1166 356 c 0
 1166 357 1166 357 1166 358 c 0
 1166 359 1166 361 1166 362 c 0
 1166 387 1205 408 1233 408 c 0
 1245 408 1255 404 1259 395 c 0
 1287 336 1312 267 1312 191 c 0
 1312 68 1199 -12 1097 -12 c 0
 1041 -12 988 13 960 68 c 1
 913 20 852 -4 798 -4 c 0
 786 -4 774 -2 763 -0 c 1
 763 -128 650 -301 353 -301 c 0
 352 -301 351 -301 350 -301 c 0
 219 -301 75 -250 75 -71 c 0
EndSplineSet
Colour: ffda6b
EndChar

StartChar: _.sin.fina
Encoding: 65549 -1 13
GlifName: _.sin.fina
Width: 1488
VWidth: 1304
GlyphClass: 1
UnlinkRmOvrlpSave: 1
Flags: HMW
LayerCount: 2
Fore
SplineSet
75 -71 m 0
 75 -6 94 76 140 178 c 0
 145 191 155 196 167 196 c 0
 191 196 219 175 219 154 c 0
 219 151 219 147 217 144 c 0
 181 64 167 2 167 -46 c 0
 167 -175 274 -200 361 -200 c 0
 579 -199 664 -88 664 -12 c 0
 664 51 641 125 600 215 c 1
 593 234 l 2
 590 240 588 246 588 252 c 0
 588 281 621 303 648 303 c 0
 661 303 672 298 678 287 c 2
 686 268 l 2
 704 229 721 191 733 154 c 0
 746 121 781 101 820 101 c 0
 870 101 926 134 944 214 c 0
 945 219 945 223 946 228 c 2
 955 266 l 1
 955 271 l 1
 958 286 972 292 989 292 c 0
 1016 292 1048 276 1044 256 c 2
 1032 187 l 2
 1032 185 1032 182 1032 180 c 0
 1032 131 1074 101 1122 101 c 0
 1173 101 1230 134 1248 216 c 1
 1259 271 l 2
 1262 286 1276 292 1293 292 c 0
 1320 292 1351 276 1347 256 c 2
 1328 155 l 1
 1351 121 1388 100 1451 100 c 2
 1488 100 l 1
 1488 -0 l 1
 1452 -0 l 2
 1367 0 1310 20 1273 59 c 1
 1232 18 1178 -2 1125 -2 c 0
 1067 -2 1012 22 977 66 c 1
 936 20 878 -1 822 -1 c 0
 802 -1 782 1 763 7 c 1
 763 -0 l 2
 763 -128 650 -301 353 -301 c 0
 352 -301 351 -301 350 -301 c 0
 219 -301 75 -250 75 -71 c 0
EndSplineSet
Colour: ffda6b
EndChar

StartChar: _.sin.medi
Encoding: 65550 -1 14
GlifName: _.sin.medi
Width: 1086
VWidth: 1304
GlyphClass: 1
UnlinkRmOvrlpSave: 1
Flags: HMW
LayerCount: 2
Fore
SplineSet
-50 50 m 0
 -50 76 -26 100 -1 100 c 2
 77 100 l 2
 162 100 213 124 234 216 c 1
 242 253 l 1
 242 266 l 1
 245 271 l 1
 248 286 263 292 279 292 c 0
 305 292 337 276 334 256 c 2
 323 196 l 2
 322 191 322 186 322 181 c 0
 322 131 365 101 413 101 c 0
 464 101 519 134 537 216 c 2
 548 266 l 1
 548 271 l 1
 551 286 566 292 583 292 c 0
 610 292 641 276 637 256 c 2
 630 212 l 1
 630 198 l 1
 629 192 628 186 628 181 c 0
 628 131 670 101 718 101 c 0
 768 101 824 134 841 216 c 1
 854 271 l 2
 857 286 871 292 887 292 c 0
 913 292 945 276 941 256 c 2
 925 159 l 1
 948 122 983 100 1048 100 c 2
 1086 100 l 1
 1086 -0 l 1
 1049 -0 l 2
 963 0 906 19 868 61 c 1
 827 18 773 -1 719 -1 c 0
 661 -1 605 22 570 66 c 1
 528 20 471 -2 415 -2 c 0
 358 -2 303 21 268 65 c 1
 221 16 151 0 69 -0 c 2
 -1 -0 l 2
 -26 0 -50 24 -50 50 c 0
EndSplineSet
Colour: ffda6b
EndChar

StartChar: _.sin.init
Encoding: 65551 -1 15
GlifName: _.sin.init
Width: 956
VWidth: 1304
GlyphClass: 1
UnlinkRmOvrlpSave: 1
Flags: HMW
LayerCount: 2
Fore
SplineSet
734 364 m 0
 734 387 767 412 798 412 c 0
 811 412 822 407 828 395 c 2
 836 377 l 2
 861 323 881 260 881 191 c 0
 881 61 774 -14 674 -14 c 0
 618 -14 565 9 534 59 c 1
 493 18 439 -1 386 -1 c 0
 329 -1 273 21 238 65 c 1
 192 16 123 0 41 -0 c 2
 0 -0 l 2
 -25 0 -50 24 -50 50 c 0
 -49 76 -25 100 0 100 c 2
 48 100 l 2
 132 100 185 124 205 216 c 1
 217 271 l 2
 220 287 237 294 255 294 c 0
 281 294 309 280 305 256 c 1
 305 245 l 1
 295 198 l 2
 294 192 293 186 293 181 c 0
 293 131 337 101 385 101 c 0
 436 101 492 134 509 216 c 1
 513 232 l 2
 515 244 518 256 520 268 c 1
 520 271 l 1
 523 287 540 294 558 294 c 0
 584 294 613 280 609 256 c 2
 600 209 l 2
 598 198 598 187 598 178 c 0
 598 114 633 90 673 90 c 0
 726 90 783 131 783 183 c 0
 783 222 763 281 743 335 c 1
 735 356 l 2
 734 359 734 361 734 364 c 0
EndSplineSet
Colour: ffda6b
EndChar

StartChar: _.sad.isol
Encoding: 65552 -1 16
GlifName: _.sad.isol
Width: 1468
VWidth: 1304
GlyphClass: 1
UnlinkRmOvrlpSave: 1
Flags: HMW
LayerCount: 2
Fore
SplineSet
75 -70 m 0
 75 -5 94 76 139 178 c 0
 145 191 155 196 167 196 c 0
 191 196 219 175 219 154 c 0
 219 151 219 147 217 144 c 0
 181 64 167 2 167 -46 c 0
 167 -175 274 -200 361 -200 c 0
 579 -199 664 -88 664 -12 c 0
 664 55 637 137 592 234 c 0
 590 239 589 243 589 248 c 0
 589 274 621 298 649 298 c 0
 660 298 669 295 677 287 c 1
 698 240 723 185 739 136 c 0
 744 124 757 115 771 109 c 1
 835 189 1009 413 1146 439 c 0
 1161 442 1176 444 1190 444 c 0
 1307 444 1390 348 1393 230 c 1
 1393 219 l 1
 1384 20 1114 0 1033 -0 c 2
 789 -0 l 1
 780 1 771 4 762 6 c 1
 762 -0 l 2
 762 -128 650 -301 353 -301 c 0
 352 -301 351 -301 350 -301 c 0
 220 -301 75 -249 75 -70 c 0
879 100 m 1
 1039 100 l 2
 1163 100 1291 142 1292 229 c 0
 1291 289 1244 338 1183 338 c 0
 1178 338 1174 338 1169 337 c 0
 1077 326 954 191 879 100 c 1
EndSplineSet
Colour: ffda6b
EndChar

StartChar: _.sad.fina
Encoding: 65553 -1 17
GlifName: _.sad.fina
Width: 1512
VWidth: 1304
GlyphClass: 1
UnlinkRmOvrlpSave: 1
Flags: HMW
LayerCount: 2
Fore
SplineSet
75 -70 m 0
 75 -5 94 76 139 178 c 0
 145 191 155 196 167 196 c 0
 191 196 219 175 219 154 c 0
 219 151 219 147 217 144 c 0
 181 64 167 2 167 -46 c 0
 167 -175 274 -200 361 -200 c 0
 579 -199 664 -88 664 -12 c 0
 664 55 637 137 592 234 c 0
 590 239 589 243 589 248 c 0
 589 274 621 298 649 298 c 0
 660 298 669 295 677 287 c 1
 698 240 723 185 739 136 c 0
 744 124 757 115 771 109 c 1
 835 189 1009 413 1146 439 c 0
 1161 442 1176 444 1190 444 c 0
 1307 444 1390 348 1393 230 c 1
 1393 219 l 2
 1393 197 1386 177 1380 159 c 1
 1402 123 1440 100 1505 100 c 2
 1512 100 l 1
 1512 -0 l 1
 1506 -0 l 2
 1411 0 1352 25 1314 75 c 1
 1227 9 1087 0 1033 -0 c 2
 789 -0 l 1
 780 1 771 4 762 6 c 1
 762 -0 l 2
 762 -128 650 -301 353 -301 c 0
 352 -301 351 -301 350 -301 c 0
 220 -301 75 -249 75 -70 c 0
879 100 m 1
 1039 100 l 2
 1163 100 1291 142 1292 229 c 0
 1291 289 1244 338 1183 338 c 0
 1178 338 1174 338 1169 337 c 0
 1077 326 954 191 879 100 c 1
EndSplineSet
Colour: ffda6b
EndChar

StartChar: _.sad.medi
Encoding: 65554 -1 18
GlifName: _.sad.medi
Width: 1059
VWidth: 1304
GlyphClass: 1
UnlinkRmOvrlpSave: 1
Flags: HMW
LayerCount: 2
Fore
SplineSet
-50 50 m 0
 -50 76 -26 100 0 100 c 0
 129 101 158 136 199 228 c 2
 223 283 l 2
 227 293 236 297 245 297 c 0
 271 297 306 267 306 249 c 0
 306 248 306 246 306 245 c 2
 292 213 l 2
 283 193 280 175 280 161 c 0
 280 133 295 115 316 106 c 1
 378 184 555 413 694 439 c 0
 709 442 723 444 737 444 c 0
 854 444 937 348 940 230 c 1
 940 219 l 2
 940 197 933 177 927 159 c 1
 949 123 988 100 1052 100 c 2
 1059 100 l 1
 1059 -0 l 1
 1053 -0 l 2
 958 0 899 25 861 75 c 1
 774 9 634 0 580 -0 c 2
 337 -0 l 1
 287 5 243 33 220 79 c 1
 157 5 101 0 0 -0 c 0
 -25 0 -50 24 -50 50 c 0
426 100 m 1
 586 100 l 2
 710 100 838 142 839 229 c 0
 838 289 791 338 730 338 c 0
 725 338 721 338 716 337 c 0
 624 326 501 191 426 100 c 1
EndSplineSet
Colour: ffda6b
EndChar

StartChar: _.sad.init
Encoding: 65555 -1 19
GlifName: _.sad.init
Width: 1015
VWidth: 1304
GlyphClass: 1
UnlinkRmOvrlpSave: 1
Flags: HMW
LayerCount: 2
Fore
SplineSet
-50 50 m 0
 -50 76 -26 100 0 100 c 0
 129 101 158 136 199 228 c 2
 223 283 l 2
 227 293 236 297 245 297 c 0
 271 297 306 267 306 249 c 0
 306 248 306 246 306 245 c 2
 292 213 l 2
 283 193 280 175 280 161 c 0
 280 133 295 115 316 106 c 1
 378 184 555 413 694 439 c 0
 709 442 723 444 737 444 c 0
 854 444 937 348 940 230 c 1
 940 219 l 1
 931 20 661 0 580 -0 c 2
 337 -0 l 1
 287 5 243 33 220 79 c 1
 157 5 101 0 0 -0 c 0
 -25 0 -50 24 -50 50 c 0
426 100 m 1
 586 100 l 2
 710 100 838 142 839 229 c 0
 838 289 791 338 730 338 c 0
 725 338 721 338 716 337 c 0
 624 326 501 191 426 100 c 1
EndSplineSet
Colour: ffda6b
EndChar

StartChar: _.ta.isol
Encoding: 65556 -1 20
GlifName: _.ta.isol
Width: 964
VWidth: 1304
GlyphClass: 1
UnlinkRmOvrlpSave: 1
Flags: HMW
LayerCount: 2
Fore
SplineSet
75 89 m 0
 75 118 95 149 117 149 c 0
 122 149 126 148 131 145 c 0
 178 115 207 102 261 101 c 1
 282 127 321 177 369 231 c 1
 369 421 l 2
 369 517 351 673 321 762 c 0
 321 763 320 764 320 765 c 0
 320 782 359 800 385 800 c 0
 395 800 403 797 405 790 c 0
 436 701 458 547 458 421 c 2
 458 325 l 1
 518 382 584 428 643 439 c 0
 658 442 673 444 687 444 c 0
 804 444 886 348 889 230 c 1
 889 219 l 1
 880 20 611 0 530 -0 c 2
 274 -0 l 2
 210 0 133 16 90 53 c 0
 79 62 75 75 75 89 c 0
376 100 m 1
 536 100 l 2
 660 100 787 142 788 229 c 0
 787 289 741 338 680 338 c 0
 675 338 670 338 665 337 c 0
 573 326 451 191 376 100 c 1
EndSplineSet
Colour: ffda6b
EndChar

StartChar: _.ta.fina
Encoding: 65557 -1 21
GlifName: _.ta.fina
Width: 1009
VWidth: 1304
GlyphClass: 1
UnlinkRmOvrlpSave: 1
Flags: HMW
LayerCount: 2
Fore
SplineSet
75 89 m 0
 75 118 95 149 117 149 c 0
 122 149 126 148 131 145 c 0
 178 115 207 102 261 101 c 1
 282 127 321 177 369 231 c 1
 369 421 l 2
 369 517 351 673 321 762 c 0
 321 763 320 764 320 765 c 0
 320 782 359 800 385 800 c 0
 395 800 403 797 405 790 c 0
 436 701 458 547 458 421 c 2
 458 325 l 1
 518 382 584 428 643 439 c 0
 658 442 673 444 687 444 c 0
 804 444 886 348 889 230 c 1
 889 219 l 2
 889 197 883 177 877 159 c 1
 899 123 936 100 1001 100 c 2
 1009 100 l 1
 1009 -0 l 1
 1003 -0 l 2
 908 0 848 25 810 75 c 1
 723 9 584 0 530 -0 c 2
 274 -0 l 2
 210 0 133 16 90 53 c 0
 79 62 75 75 75 89 c 0
376 100 m 1
 536 100 l 2
 660 100 787 142 788 229 c 0
 787 289 741 338 680 338 c 0
 675 338 670 338 665 337 c 0
 573 326 451 191 376 100 c 1
EndSplineSet
Colour: ffda6b
EndChar

StartChar: _.ta.medi
Encoding: 65558 -1 22
GlifName: _.ta.medi
Width: 820
VWidth: 1304
GlyphClass: 1
UnlinkRmOvrlpSave: 1
Flags: HMW
LayerCount: 2
Fore
SplineSet
-50 50 m 0
 -49 76 -26 100 0 100 c 2
 73 100 l 1
 94 127 132 177 180 231 c 1
 180 421 l 2
 180 517 162 673 132 762 c 0
 132 763 132 764 132 765 c 0
 132 782 171 800 197 800 c 0
 207 800 215 797 217 790 c 0
 248 701 270 547 270 421 c 2
 270 325 l 1
 330 382 396 428 455 439 c 0
 470 442 484 444 498 444 c 0
 615 444 698 348 701 230 c 1
 701 219 l 2
 701 197 695 177 689 159 c 1
 711 123 748 100 813 100 c 2
 820 100 l 1
 820 -0 l 1
 814 -0 l 2
 719 0 660 25 622 75 c 1
 535 9 395 0 341 -0 c 2
 0 -0 l 2
 -26 0 -50 24 -50 50 c 0
188 100 m 1
 348 100 l 2
 472 100 599 142 600 229 c 0
 599 289 553 338 492 338 c 0
 487 338 482 338 477 337 c 0
 385 326 263 191 188 100 c 1
EndSplineSet
Colour: ffda6b
EndChar

StartChar: _.ta.init
Encoding: 65559 -1 23
GlifName: _.ta.init
Width: 776
VWidth: 1304
GlyphClass: 1
UnlinkRmOvrlpSave: 1
Flags: HMW
LayerCount: 2
Fore
SplineSet
-50 50 m 0
 -49 76 -26 100 0 100 c 2
 73 100 l 1
 94 127 132 177 180 231 c 1
 180 421 l 2
 180 517 162 673 132 762 c 0
 132 763 132 764 132 765 c 0
 132 782 171 800 197 800 c 0
 207 800 215 797 217 790 c 0
 248 701 270 547 270 421 c 2
 270 325 l 1
 330 382 396 428 455 439 c 0
 470 442 484 444 498 444 c 0
 615 444 698 348 701 230 c 1
 701 219 l 1
 692 20 422 0 341 -0 c 2
 0 -0 l 2
 -26 0 -50 24 -50 50 c 0
188 100 m 1
 348 100 l 2
 472 100 599 142 600 229 c 0
 599 289 553 338 492 338 c 0
 487 338 482 338 477 337 c 0
 385 326 263 191 188 100 c 1
EndSplineSet
Colour: ffda6b
EndChar

StartChar: _.ein.isol
Encoding: 65560 -1 24
GlifName: _.ein.isol
Width: 766
VWidth: 1304
GlyphClass: 1
UnlinkRmOvrlpSave: 1
Flags: HMW
LayerCount: 2
Fore
SplineSet
75 -118 m 0
 75 19 159 170 330 253 c 1
 277 306 253 372 253 436 c 0
 253 555 336 665 465 665 c 0
 516 665 575 648 638 607 c 0
 649 599 653 588 653 576 c 0
 653 549 628 519 603 519 c 0
 601 519 599 519 597 519 c 0
 547 543 505 553 470 553 c 0
 388 553 348 498 348 438 c 0
 348 383 382 324 448 298 c 1
 448 293 l 1
 508 310 572 322 677 338 c 0
 678 338 l 0
 687 338 691 329 691 316 c 0
 691 292 680 256 675 250 c 1
 569 232 427 186 396 175 c 0
 240 112 166 -5 166 -107 c 0
 166 -256 288 -299 410 -299 c 0
 490 -299 571 -281 619 -262 c 0
 623 -261 626 -261 629 -261 c 0
 651 -261 659 -283 659 -306 c 0
 659 -332 649 -360 641 -363 c 0
 578 -384 495 -401 411 -401 c 0
 244 -401 75 -336 75 -118 c 0
EndSplineSet
Colour: ffda6b
EndChar

StartChar: _.ein.fina
Encoding: 65561 -1 25
GlifName: _.ein.fina
Width: 704
VWidth: 1304
GlyphClass: 1
UnlinkRmOvrlpSave: 1
Flags: HMW
LayerCount: 2
Fore
SplineSet
75 -118 m 0
 75 8 147 147 292 232 c 1
 276 252 261 268 245 282 c 0
 206 315 163 345 103 365 c 1
 81 372 l 1
 102 473 l 1
 118 485 l 2
 179 531 290 575 400 575 c 0
 539 575 611 512 611 423 c 0
 611 349 540 261 434 198 c 1
 489 145 559 100 650 100 c 2
 704 100 l 1
 704 -0 l 1
 663 -0 l 2
 510 0 422 77 354 155 c 1
 227 90 166 -14 166 -107 c 0
 166 -257 287 -299 410 -299 c 0
 490 -299 571 -281 619 -262 c 0
 623 -261 626 -261 629 -261 c 0
 651 -261 659 -283 659 -306 c 0
 659 -332 649 -360 641 -363 c 0
 578 -384 495 -401 411 -401 c 0
 244 -401 75 -336 75 -118 c 0
181 426 m 1
 223 403 259 370 300 338 c 0
 321 321 342 296 367 269 c 1
 461 316 521 379 521 406 c 0
 521 438 480 474 391 474 c 0
 321 474 241 451 181 426 c 1
EndSplineSet
Colour: ffda6b
EndChar

StartChar: _.ein.medi
Encoding: 65562 -1 26
GlifName: _.ein.medi
Width: 601
VWidth: 1304
GlyphClass: 1
UnlinkRmOvrlpSave: 1
Flags: HMW
LayerCount: 2
Fore
SplineSet
-50 50 m 0
 -49 75 -26 100 -1 100 c 2
 51 100 l 2
 105 100 156 109 202 125 c 1
 145 173 97 224 12 251 c 1
 -9 257 l 1
 12 357 l 1
 28 370 l 1
 89 416 199 460 308 460 c 0
 448 460 520 398 520 309 c 0
 520 249 473 178 398 120 c 1
 444 108 495 100 559 100 c 2
 601 100 l 1
 601 -0 l 1
 573 -0 l 2
 444 0 360 25 297 58 c 1
 224 24 138 0 51 -0 c 2
 0 -0 l 2
 -25 0 -50 24 -50 50 c 0
90 311 m 1
 158 273 212 212 293 164 c 1
 377 210 430 265 430 290 c 0
 430 323 390 358 304 358 c 0
 303 358 301 358 300 358 c 0
 230 358 149 336 90 311 c 1
EndSplineSet
Colour: ffda6b
EndChar

StartChar: _.ein.init
Encoding: 65563 -1 27
GlifName: _.ein.init
Width: 561
VWidth: 1304
GlyphClass: 1
UnlinkRmOvrlpSave: 1
Flags: HMW
LayerCount: 2
Fore
SplineSet
-50 50 m 0
 -49 76 -25 100 0 100 c 2
 56 100 l 2
 82 100 104 102 125 104 c 1
 78 155 57 217 57 277 c 0
 57 396 140 506 269 506 c 0
 320 506 378 489 442 447 c 0
 453 439 458 428 458 416 c 0
 458 389 433 359 408 359 c 0
 406 359 404 359 402 359 c 0
 352 383 309 393 274 393 c 0
 192 393 152 338 152 278 c 0
 152 223 185 164 250 138 c 1
 308 159 366 180 472 180 c 0
 473 180 l 0
 482 180 486 168 486 153 c 0
 486 124 473 82 460 80 c 0
 342 76 193 0 60 -0 c 2
 -2 -0 l 1
 -27 1 -50 24 -50 50 c 0
EndSplineSet
Colour: ffda6b
EndChar

StartChar: _.feh.isol
Encoding: 65564 -1 28
GlifName: _.feh.isol
Width: 952
VWidth: 1304
GlyphClass: 1
UnlinkRmOvrlpSave: 1
Flags: HMW
LayerCount: 2
Fore
SplineSet
491 354 m 0
 491 496 579 601 675 601 c 0
 776 601 866 495 875 266 c 0
 876 254 877 241 877 230 c 0
 876 87 695 0 445 -0 c 0
 226 0 92 57 76 199 c 0
 75 205 75 212 75 218 c 0
 75 259 88 307 109 363 c 1
 115 381 l 2
 120 394 133 400 147 400 c 0
 172 400 200 382 200 356 c 0
 200 352 200 347 198 343 c 2
 190 322 l 2
 178 289 171 261 171 235 c 0
 172 138 277 100 443 100 c 0
 624 100 765 152 779 218 c 1
 747 206 708 199 670 199 c 0
 580 199 491 239 491 354 c 0
775 322 m 1
 758 446 715 500 672 500 c 0
 629 500 583 447 578 369 c 1
 578 315 623 299 670 299 c 0
 713 299 757 312 775 322 c 1
EndSplineSet
Colour: ffda6b
EndChar

StartChar: _.feh.fina
Encoding: 65565 -1 29
GlifName: _.feh.fina
Width: 1051
VWidth: 1304
GlyphClass: 1
UnlinkRmOvrlpSave: 1
Flags: HMW
LayerCount: 2
Fore
SplineSet
583 260 m 0
 583 366 663 510 769 510 c 0
 872 510 940 379 940 271 c 0
 940 212 910 160 859 119 c 1
 898 107 941 100 985 100 c 2
 1051 100 l 1
 1051 -0 l 1
 993 -0 l 2
 887 0 802 21 738 53 c 1
 663 19 561 0 445 -0 c 0
 226 0 92 57 76 199 c 0
 75 205 75 212 75 218 c 0
 75 259 88 307 109 363 c 1
 115 381 l 2
 120 394 133 400 147 400 c 0
 172 400 200 382 200 356 c 0
 200 352 200 347 198 343 c 2
 190 322 l 2
 178 289 171 261 171 235 c 0
 172 138 277 100 443 100 c 0
 518 100 587 108 642 124 c 1
 601 166 583 210 583 260 c 0
673 257 m 0
 673 232 703 198 751 167 c 1
 804 189 843 220 852 252 c 0
 853 256 854 260 854 265 c 0
 854 308 806 400 764 400 c 0
 718 400 673 305 673 257 c 0
EndSplineSet
Colour: ffda6b
EndChar

StartChar: _.feh.medi
Encoding: 65566 -1 30
GlifName: _.feh.medi
Width: 536
VWidth: 1304
GlyphClass: 1
UnlinkRmOvrlpSave: 1
Flags: HMW
LayerCount: 2
Fore
SplineSet
68 258 m 0
 68 365 148 510 254 510 c 0
 357 510 425 379 425 271 c 0
 425 216 399 162 354 116 c 1
 390 106 429 100 470 100 c 2
 536 100 l 1
 536 -0 l 1
 478 -0 l 2
 386 0 308 16 248 42 c 1
 193 16 126 0 55 -0 c 2
 0 -0 l 2
 -26 0 -50 24 -50 50 c 0
 -50 75 -28 98 -3 100 c 1
 12 100 27 100 42 100 c 0
 73 100 106 104 137 113 c 1
 90 158 68 206 68 258 c 0
158 257 m 0
 158 230 193 192 248 160 c 1
 295 188 330 222 337 252 c 0
 338 254 338 257 338 260 c 0
 338 295 292 400 250 400 c 0
 203 400 158 305 158 257 c 0
EndSplineSet
Colour: ffda6b
EndChar

StartChar: _.feh.init
Encoding: 65567 -1 31
GlifName: _.feh.init
Width: 501
VWidth: 1304
GlyphClass: 1
UnlinkRmOvrlpSave: 1
Flags: HMW
LayerCount: 2
Fore
SplineSet
37 356 m 0
 37 497 126 601 221 601 c 0
 320 601 408 500 421 285 c 1
 424 259 426 236 426 214 c 0
 426 74 358 0 163 -0 c 2
 -1 -0 l 1
 -26 1 -50 24 -50 50 c 0
 -50 75 -26 100 -1 100 c 2
 165 100 l 2
 291 100 331 141 331 203 c 0
 331 209 331 214 330 220 c 1
 297 207 257 199 217 199 c 0
 126 199 37 241 37 356 c 0
322 322 m 1
 305 446 261 500 218 500 c 0
 175 500 130 447 125 369 c 1
 125 315 170 299 217 299 c 0
 260 299 305 312 322 322 c 1
EndSplineSet
Colour: ffda6b
EndChar

StartChar: _.qaf.isol
Encoding: 65568 -1 32
GlifName: _.qaf.isol
Width: 871
VWidth: 1304
GlyphClass: 1
UnlinkRmOvrlpSave: 1
Flags: HMW
LayerCount: 2
Fore
SplineSet
409 155 m 0
 409 299 498 400 595 400 c 0
 700 400 793 285 795 40 c 1
 795 11 l 2
 795 7 796 4 796 -0 c 0
 796 -128 684 -301 387 -301 c 0
 386 -301 385 -301 384 -301 c 0
 249 -301 75 -246 75 -51 c 0
 75 11 93 86 134 178 c 0
 139 191 149 196 161 196 c 0
 184 196 213 175 213 154 c 0
 213 150 212 147 210 144 c 0
 180 75 167 19 167 -26 c 0
 167 -172 303 -200 395 -200 c 0
 614 -199 703 -86 702 -10 c 0
 702 -6 702 -3 702 1 c 2
 701 20 l 1
 669 7 629 -1 590 -1 c 0
 499 -1 409 40 409 155 c 0
694 122 m 1
 677 248 634 299 589 299 c 0
 547 299 502 247 497 170 c 1
 497 116 541 99 588 99 c 0
 631 99 676 113 694 122 c 1
EndSplineSet
Colour: ffda6b
EndChar

StartChar: _.qaf.fina
Encoding: 65569 -1 33
GlifName: _.qaf.fina
Width: 896
VWidth: 1304
GlyphClass: 1
UnlinkRmOvrlpSave: 1
Flags: HMW
LayerCount: 2
Fore
SplineSet
409 156 m 0
 409 298 499 400 594 400 c 0
 691 400 776 305 792 100 c 1
 896 100 l 1
 896 -0 l 1
 796 -0 l 1
 796 -128 684 -301 387 -301 c 0
 386 -301 385 -301 384 -301 c 0
 249 -301 75 -246 75 -51 c 0
 75 11 93 86 134 178 c 0
 139 191 149 196 161 196 c 0
 184 196 213 175 213 154 c 0
 213 150 212 147 210 144 c 0
 180 75 167 19 167 -26 c 0
 167 -172 303 -200 395 -200 c 0
 614 -199 703 -86 702 -10 c 1
 702 -0 l 1
 585 -0 l 1
 496 1 409 41 409 156 c 0
696 100 m 1
 681 242 637 299 589 299 c 0
 547 299 502 247 497 170 c 0
 497 117 539 101 585 100 c 1
 696 100 l 1
EndSplineSet
Colour: ffda6b
EndChar

StartChar: _.kaf.isol.fa
Encoding: 65570 -1 34
GlifName: _.kaf.isol.fa
Width: 1089
VWidth: 1304
GlyphClass: 1
UnlinkRmOvrlpSave: 1
Flags: HMW
LayerCount: 2
Fore
SplineSet
780 228 m 0
 780 365 575 448 520 479 c 1
 537 577 542 591 580 618 c 0
 678 683 836 758 969 800 c 0
 976 803 981 804 986 804 c 0
 1008 804 1014 783 1014 760 c 0
 1014 741 1010 720 1007 708 c 1
 881 670 739 605 625 537 c 1
 731 479 876 385 877 230 c 0
 876 87 695 0 445 -0 c 0
 226 0 92 57 76 199 c 0
 75 205 75 212 75 218 c 0
 75 259 88 307 109 363 c 1
 115 381 l 2
 120 394 133 400 147 400 c 0
 172 400 200 382 200 356 c 0
 200 352 200 347 198 343 c 2
 190 322 l 2
 178 289 171 261 171 235 c 0
 172 138 277 100 443 100 c 0
 630 100 780 155 780 228 c 0
EndSplineSet
Colour: ffda6b
EndChar

StartChar: _.kaf.isol.ar
Encoding: 65571 -1 35
GlifName: _.kaf.isol.ar
Width: 951
VWidth: 1304
GlyphClass: 1
UnlinkRmOvrlpSave: 1
Flags: HMW
LayerCount: 2
Fore
SplineSet
75 217 m 0
 75 267 87 327 113 400 c 0
 115 406 124 409 129 407 c 2
 164 393 l 2
 169 391 174 384 170 373 c 0
 153 328 146 289 146 256 c 0
 146 138 249 100 380 100 c 0
 382 100 383 100 385 100 c 0
 551 100 693 134 803 172 c 1
 787 700 l 2
 787 707 787 713 787 718 c 0
 787 752 795 762 864 800 c 0
 871 800 876 798 876 789 c 2
 876 200 l 2
 876 121 864 99 764 65 c 0
 658 31 557 -1 369 -1 c 0
 210 -1 75 47 75 217 c 0
EndSplineSet
Colour: ffda6b
EndChar

StartChar: _.kaf.fina.fa
Encoding: 65572 -1 36
GlifName: _.kaf.fina.fa
Width: 1116
VWidth: 1304
GlyphClass: 1
UnlinkRmOvrlpSave: 1
Flags: HMW
LayerCount: 2
Fore
SplineSet
780 226 m 0
 780 362 583 443 520 479 c 1
 537 577 542 591 580 618 c 0
 678 683 836 758 969 800 c 0
 976 803 981 804 986 804 c 0
 1008 804 1014 783 1014 760 c 0
 1014 741 1010 720 1007 708 c 1
 881 670 739 605 625 537 c 1
 667 514 716 485 759 449 c 1
 759 448 l 1
 771 438 784 427 795 415 c 0
 938 272 967 100 1116 100 c 1
 1116 -0 l 1
 984 0 939 67 865 170 c 1
 821 63 658 0 445 -0 c 0
 226 0 92 57 76 199 c 0
 75 205 75 212 75 218 c 0
 75 259 88 307 109 363 c 1
 115 381 l 2
 120 394 133 400 147 400 c 0
 172 400 200 382 200 356 c 0
 200 352 200 347 198 343 c 2
 190 322 l 2
 178 289 171 261 171 235 c 0
 172 138 277 100 443 100 c 0
 631 100 776 155 780 226 c 0
EndSplineSet
Colour: ffda6b
EndChar

StartChar: _.kaf.fina.ar
Encoding: 65573 -1 37
GlifName: _.kaf.fina.ar
Width: 896
VWidth: 1304
GlyphClass: 1
UnlinkRmOvrlpSave: 1
Flags: HMW
LayerCount: 2
Fore
SplineSet
75 28 m 1
 107 117 l 1
 157 95 230 82 326 82 c 0
 421 82 507 87 585 97 c 0
 638 104 663 141 663 209 c 2
 663 761 l 1
 745 761 l 1
 745 246 l 2
 745 175 758 123 810 109 c 0
 835 102 863 98 896 98 c 1
 896 -3 l 1
 822 -3 771 10 739 36 c 0
 734 40 725 48 711 64 c 1
 690 31 661 12 624 7 c 0
 527 -9 427 -17 322 -17 c 0
 219 -17 137 -2 75 28 c 1
EndSplineSet
Colour: ffda6b
EndChar

StartChar: _.kaf.medi
Encoding: 65574 -1 38
GlifName: _.kaf.medi
Width: 620
VWidth: 1304
GlyphClass: 1
UnlinkRmOvrlpSave: 1
Flags: HMW
LayerCount: 2
Fore
SplineSet
284 226 m 1
 284 362 87 443 24 479 c 1
 41 577 45 591 83 618 c 0
 181 683 339 758 472 800 c 0
 479 803 485 804 490 804 c 0
 512 804 518 783 518 760 c 0
 518 741 513 720 510 708 c 1
 384 670 243 605 129 537 c 1
 171 514 220 485 263 449 c 1
 263 448 l 1
 275 438 287 427 298 415 c 0
 441 272 471 100 620 100 c 1
 620 -0 l 1
 490 0 443 64 372 165 c 1
 331 23 141 0 7 -0 c 2
 -1 -0 l 2
 -25 0 -50 24 -50 49 c 0
 -50 75 -27 100 -1 100 c 2
 14 100 l 2
 108 100 277 112 284 226 c 1
EndSplineSet
Colour: ffda6b
EndChar

StartChar: _.kaf.init
Encoding: 65575 -1 39
GlifName: _.kaf.init
Width: 593
VWidth: 1304
GlyphClass: 1
UnlinkRmOvrlpSave: 1
Flags: HMW
LayerCount: 2
Fore
SplineSet
-50 49 m 0
 -50 75 -27 100 -1 100 c 2
 14 100 l 2
 108 100 277 112 284 226 c 1
 284 227 l 0
 284 364 79 448 24 479 c 1
 41 577 45 591 83 618 c 0
 181 683 339 758 472 800 c 0
 479 803 485 804 490 804 c 0
 512 804 518 783 518 760 c 0
 518 741 513 720 510 708 c 1
 384 670 243 605 129 537 c 1
 237 478 381 384 381 225 c 0
 381 30 160 0 7 -0 c 2
 -1 -0 l 2
 -25 0 -50 24 -50 49 c 0
EndSplineSet
Colour: ffda6b
EndChar

StartChar: _.kaf_hamze.isol.ar
Encoding: 65576 -1 40
GlifName: _.kaf_hamze.isol.ar
Width: 400
VWidth: 1304
GlyphClass: 1
UnlinkRmOvrlpSave: 1
Flags: HMW
LayerCount: 2
Fore
SplineSet
75 306 m 0
 75 323 82 340 95 343 c 0
 106 343 242 349 242 385 c 0
 242 395 133 415 133 493 c 0
 133 566 241 610 303 610 c 0
 304 610 l 0
 319 610 325 596 325 580 c 0
 325 562 317 543 303 543 c 0
 276 543 190 530 190 493 c 0
 190 487 199 480 215 473 c 0
 252 455 298 435 298 386 c 0
 298 313 152 274 95 274 c 0
 81 275 75 290 75 306 c 0
EndSplineSet
Colour: ffda6b
EndChar

StartChar: _.ghaf.isol
Encoding: 65577 -1 41
GlifName: _.ghaf.isol
Width: 1089
VWidth: 0
GlyphClass: 1
UnlinkRmOvrlpSave: 1
Flags: HMW
LayerCount: 2
Fore
SplineSet
780 228 m 0
 780 365 575 448 520 479 c 1
 537 577 542 591 580 618 c 0
 678 683 836 758 969 800 c 0
 976 803 981 804 986 804 c 0
 1008 804 1014 783 1014 760 c 0
 1014 741 1010 720 1007 708 c 1
 881 670 739 605 625 537 c 1
 731 479 876 385 877 230 c 0
 876 87 695 0 445 -0 c 0
 226 0 92 57 76 199 c 0
 75 205 75 212 75 218 c 0
 75 259 88 307 109 363 c 1
 115 381 l 2
 120 394 133 400 147 400 c 0
 172 400 200 382 200 356 c 0
 200 352 200 347 198 343 c 2
 190 322 l 2
 178 289 171 261 171 235 c 0
 172 138 277 100 443 100 c 0
 630 100 780 155 780 228 c 0
571 777 m 1
 685 850 720 862 863 911 c 0
 864 911 863 911 864 911 c 0
 886 911 882 866 884 848 c 1
 758 804 714 789 598 715 c 0
 596 714 594 713 593 713 c 0
 579 713 569 761 571 777 c 1
EndSplineSet
Colour: ffda6b
EndChar

StartChar: _.ghaf.fina
Encoding: 65578 -1 42
GlifName: _.ghaf.fina
Width: 1116
VWidth: 0
GlyphClass: 1
Flags: HMW
LayerCount: 2
Fore
SplineSet
780 226 m 0
 780 362 583 443 520 479 c 1
 537 577 542 591 580 618 c 0
 678 683 836 758 969 800 c 0
 976 803 981 804 986 804 c 0
 1008 804 1014 783 1014 760 c 0
 1014 741 1010 720 1007 708 c 1
 881 670 739 605 625 537 c 1
 667 514 716 485 759 449 c 1
 759 448 l 1
 771 438 784 427 795 415 c 0
 938 272 967 100 1116 100 c 1
 1116 -0 l 1
 984 0 939 67 865 170 c 1
 821 63 658 0 445 -0 c 0
 226 0 92 57 76 199 c 0
 75 205 75 212 75 218 c 0
 75 259 88 307 109 363 c 1
 115 381 l 2
 120 394 133 400 147 400 c 0
 172 400 200 382 200 356 c 0
 200 352 200 347 198 343 c 2
 190 322 l 2
 178 289 171 261 171 235 c 0
 172 138 277 100 443 100 c 0
 631 100 776 155 780 226 c 0
571 777 m 1
 685 850 720 862 863 911 c 0
 864 911 863 911 864 911 c 0
 886 911 882 866 884 848 c 1
 758 804 714 789 598 715 c 0
 596 714 594 713 593 713 c 0
 579 713 569 761 571 777 c 1
EndSplineSet
Colour: ffda6b
EndChar

StartChar: _.lam.isol
Encoding: 65580 -1 44
GlifName: _.lam.isol
Width: 837
VWidth: 1304
GlyphClass: 1
UnlinkRmOvrlpSave: 1
Flags: HMW
LayerCount: 2
Fore
SplineSet
75 -70 m 0
 75 -5 94 76 139 178 c 0
 145 191 155 196 167 196 c 0
 191 196 219 175 219 154 c 0
 219 151 219 147 217 144 c 0
 181 64 167 2 167 -46 c 0
 167 -175 274 -200 361 -200 c 0
 580 -199 672 -87 672 -9 c 1
 647 770 l 2
 646 787 676 798 701 798 c 0
 719 798 734 792 735 780 c 2
 762 -3 l 1
 761 -129 649 -301 353 -301 c 0
 352 -301 351 -301 350 -301 c 0
 220 -301 75 -249 75 -70 c 0
EndSplineSet
Colour: ffda6b
EndChar

StartChar: _.lam.fina
Encoding: 65581 -1 45
GlifName: _.lam.fina
Width: 895
VWidth: 1304
GlyphClass: 1
UnlinkRmOvrlpSave: 1
Flags: HMW
LayerCount: 2
Fore
SplineSet
75 -70 m 0
 75 -5 94 76 139 178 c 0
 145 191 155 196 167 196 c 0
 191 196 219 175 219 154 c 0
 219 151 219 147 217 144 c 0
 181 64 167 2 167 -46 c 0
 167 -175 274 -200 361 -200 c 0
 580 -199 672 -87 672 -9 c 1
 647 770 l 2
 646 787 676 798 701 798 c 0
 719 798 734 792 735 780 c 2
 757 157 l 1
 773 111 833 100 881 100 c 2
 895 100 l 1
 895 -0 l 1
 881 -0 l 2
 834 0 793 6 761 20 c 1
 761 -3 l 1
 760 -129 649 -301 353 -301 c 0
 352 -301 351 -301 350 -301 c 0
 220 -301 75 -249 75 -70 c 0
EndSplineSet
Colour: ffda6b
EndChar

StartChar: _.lam.medi
Encoding: 65582 -1 46
GlifName: _.lam.medi
Width: 430
VWidth: 1304
GlyphClass: 1
UnlinkRmOvrlpSave: 1
Flags: HMW
LayerCount: 2
Fore
SplineSet
-50 50 m 0
 -50 76 -26 100 -1 100 c 2
 15 100 l 2
 151 100 171 160 171 219 c 0
 171 223 170 228 170 232 c 2
 140 770 l 2
 139 787 169 798 194 798 c 0
 212 798 228 792 229 780 c 2
 260 233 l 2
 264 167 275 100 361 100 c 2
 430 100 l 1
 430 -0 l 1
 361 -0 l 2
 286 0 238 22 210 61 c 1
 173 20 112 0 16 -0 c 2
 -1 -0 l 2
 -26 0 -50 24 -50 50 c 0
EndSplineSet
Colour: ffda6b
EndChar

StartChar: _.lam.init
Encoding: 65583 -1 47
GlifName: _.lam.init
Width: 333
VWidth: 1304
GlyphClass: 1
UnlinkRmOvrlpSave: 1
Flags: HMW
LayerCount: 2
Fore
SplineSet
-50 50 m 0
 -50 76 -26 100 -1 100 c 2
 15 100 l 2
 151 100 171 160 171 219 c 0
 171 223 170 228 170 232 c 2
 140 770 l 2
 139 787 169 798 194 798 c 0
 212 798 228 792 229 780 c 2
 257 288 l 2
 258 271 258 255 258 239 c 0
 258 82 208 0 16 -0 c 2
 -1 -0 l 2
 -26 0 -50 24 -50 50 c 0
EndSplineSet
Colour: ffda6b
EndChar

StartChar: _.mim.isol
Encoding: 65584 -1 48
GlifName: _.mim.isol
Width: 705
VWidth: 1304
GlyphClass: 1
UnlinkRmOvrlpSave: 1
Flags: HMW
LayerCount: 2
Fore
SplineSet
630 143 m 0
 630 58 584 10 509 10 c 0
 462 10 393 28 338 42 c 2
 325 45 l 2
 297 52 262 58 232 58 c 0
 195 58 165 50 165 26 c 2
 165 -372 l 2
 165 -388 140 -396 116 -396 c 0
 95 -396 75 -390 75 -376 c 2
 75 18 l 1
 74 115 143 161 234 161 c 0
 236 161 239 161 241 161 c 1
 272 268 l 1
 285 326 333 416 415 416 c 0
 437 416 461 410 487 395 c 0
 566 351 615 262 627 184 c 0
 629 169 630 156 630 143 c 0
502 112 m 0
 521 112 540 126 540 150 c 0
 540 153 540 156 539 159 c 0
 533 205 494 272 441 300 c 0
 432 305 423 307 415 307 c 0
 381 307 363 267 356 236 c 1
 331 149 l 1
 336 147 341 145 347 144 c 0
 394 131 470 112 502 112 c 0
EndSplineSet
Colour: ffda6b
EndChar

StartChar: _.mim.fina
Encoding: 65585 -1 49
GlifName: _.mim.fina
Width: 789
VWidth: 1304
GlyphClass: 1
UnlinkRmOvrlpSave: 1
Flags: HMW
LayerCount: 2
Fore
SplineSet
595 43 m 1
 574 22 547 10 509 10 c 0
 462 10 393 28 338 42 c 2
 325 45 l 2
 297 52 262 58 232 58 c 0
 195 58 165 50 165 26 c 2
 165 -372 l 2
 165 -388 140 -396 116 -396 c 0
 95 -396 75 -390 75 -376 c 2
 75 18 l 1
 74 115 143 161 234 161 c 0
 236 161 239 161 241 161 c 1
 272 268 l 1
 285 326 333 416 415 416 c 0
 437 416 461 410 487 395 c 0
 565 351 618 261 628 172 c 1
 645 115 700 100 753 100 c 2
 789 100 l 1
 789 -0 l 1
 753 -0 l 2
 684 0 632 15 595 43 c 1
502 112 m 0
 521 112 540 126 540 150 c 0
 540 153 540 156 539 159 c 0
 533 205 494 272 441 300 c 0
 432 305 423 307 415 307 c 0
 381 307 363 267 356 236 c 1
 331 149 l 1
 336 147 341 145 347 144 c 0
 394 131 470 112 502 112 c 0
EndSplineSet
Colour: ffda6b
EndChar

StartChar: _.mim.medi
Encoding: 65586 -1 50
GlifName: _.mim.medi
Width: 690
VWidth: 1304
GlyphClass: 1
UnlinkRmOvrlpSave: 1
Flags: HMW
LayerCount: 2
Fore
SplineSet
508 34 m 1
 489 1 458 -16 420 -16 c 0
 361 -16 250 36 191 59 c 1
 148 12 97 0 24 -0 c 2
 -1 -0 l 2
 -25 0 -50 24 -50 49 c 0
 -50 76 -27 100 -1 100 c 2
 18 100 l 2
 67 100 130 108 168 192 c 2
 213 294 l 1
 231 344 272 407 335 407 c 0
 360 407 390 397 422 372 c 0
 482 325 516 252 526 184 c 0
 538 118 599 100 654 100 c 2
 690 100 l 1
 690 -0 l 1
 654 -0 l 2
 592 0 544 11 508 34 c 1
412 87 m 0
 429 87 440 102 440 130 c 0
 440 176 410 248 361 284 c 0
 348 293 338 298 330 298 c 0
 310 298 301 274 291 248 c 0
 276 213 261 179 245 145 c 1
 292 125 384 87 412 87 c 0
EndSplineSet
Colour: ffda6b
EndChar

StartChar: _.mim.init
Encoding: 65587 -1 51
GlifName: _.mim.init
Width: 605
VWidth: 1304
GlyphClass: 1
UnlinkRmOvrlpSave: 1
Flags: HMW
LayerCount: 2
Fore
SplineSet
530 139 m 0
 530 35 488 -16 420 -16 c 0
 361 -16 250 36 191 59 c 1
 148 12 97 0 24 -0 c 2
 -1 -0 l 2
 -25 0 -50 24 -50 49 c 0
 -50 76 -27 100 -1 100 c 2
 18 100 l 2
 67 100 130 108 168 192 c 2
 213 294 l 1
 231 344 272 407 335 407 c 0
 360 407 390 397 422 372 c 0
 494 316 530 221 530 139 c 0
412 87 m 0
 429 87 440 102 440 130 c 0
 440 176 410 248 361 284 c 0
 348 293 338 298 330 298 c 0
 310 298 301 274 291 248 c 0
 276 213 261 179 245 145 c 1
 292 125 384 87 412 87 c 0
EndSplineSet
Colour: ffda6b
EndChar

StartChar: _.nun.isol
Encoding: 65588 -1 52
GlifName: _.nun.isol
Width: 897
VWidth: 1305
GlyphClass: 1
UnlinkRmOvrlpSave: 1
Flags: HMW
LayerCount: 2
Fore
SplineSet
75 -71 m 0
 75 -6 94 75 140 178 c 0
 145 191 155 196 167 196 c 0
 190 196 219 175 219 154 c 0
 219 150 218 147 216 144 c 0
 180 64 166 2 166 -46 c 0
 166 -175 274 -200 361 -200 c 0
 580 -199 725 -86 725 -10 c 0
 724 55 696 138 652 234 c 0
 650 239 649 243 649 248 c 0
 649 274 680 298 708 298 c 0
 719 298 729 295 737 287 c 1
 789 181 822 84 822 -0 c 0
 822 -128 650 -301 353 -301 c 0
 352 -301 350 -301 349 -301 c 0
 219 -301 75 -249 75 -71 c 0
EndSplineSet
Colour: ffda6b
EndChar

StartChar: _.nun.fina
Encoding: 65589 -1 53
GlifName: _.nun.fina
Width: 964
VWidth: 1413
GlyphClass: 1
UnlinkRmOvrlpSave: 1
Flags: HMW
LayerCount: 2
Fore
SplineSet
75 -71 m 0
 75 -6 94 75 140 178 c 0
 145 191 155 196 167 196 c 0
 190 196 219 175 219 154 c 0
 219 150 218 147 216 144 c 0
 180 64 166 2 166 -46 c 0
 166 -175 274 -200 361 -200 c 0
 580 -199 725 -86 725 -10 c 0
 724 55 696 138 652 234 c 0
 650 239 649 243 649 248 c 0
 649 274 680 298 708 298 c 0
 719 298 729 295 737 287 c 1
 768 226 777 171 834 134 c 0
 867 113 909 100 964 100 c 1
 964 -0 l 1
 902 0 854 10 821 28 c 1
 822 18 822 9 822 -0 c 0
 822 -128 650 -301 353 -301 c 0
 352 -301 350 -301 349 -301 c 0
 219 -301 75 -249 75 -71 c 0
EndSplineSet
Colour: ffda6b
EndChar

StartChar: _.vav.isol
Encoding: 65590 -1 54
GlifName: _.vav.isol
Width: 577
VWidth: 1304
GlyphClass: 1
UnlinkRmOvrlpSave: 1
Flags: HMW
LayerCount: 2
Fore
SplineSet
75 -251 m 0
 75 -243 80 -236 91 -232 c 0
 282 -167 377 -66 403 20 c 1
 356 5 310 -5 270 -5 c 0
 180 -5 117 39 117 154 c 0
 117 156 117 159 117 161 c 0
 124 295 207 400 299 400 c 0
 420 400 500 252 502 59 c 0
 502 -100 328 -258 163 -302 c 0
 158 -304 152 -304 147 -304 c 0
 114 -304 75 -274 75 -251 c 0
399 123 m 1
 384 229 341 298 296 298 c 0
 254 298 203 222 204 170 c 0
 204 168 204 165 204 163 c 0
 204 116 240 100 285 100 c 0
 321 100 364 110 399 123 c 1
EndSplineSet
Colour: ffda6b
EndChar

StartChar: _.vav.fina
Encoding: 65591 -1 55
GlifName: _.vav.fina
Width: 601
VWidth: 1304
GlyphClass: 1
UnlinkRmOvrlpSave: 1
Flags: HMW
LayerCount: 2
Fore
SplineSet
75 -250 m 0
 75 -242 80 -236 91 -232 c 0
 268 -172 363 -81 396 -0 c 1
 281 -0 l 2
 175 0 119 39 119 154 c 0
 119 156 119 158 119 161 c 0
 126 295 209 400 301 400 c 0
 413 400 491 274 502 100 c 1
 601 100 l 1
 601 -0 l 1
 494 -0 l 1
 458 -138 307 -264 163 -302 c 0
 158 -304 153 -304 148 -304 c 0
 114 -304 75 -273 75 -250 c 0
403 100 m 1
 392 220 346 298 298 298 c 0
 256 298 205 222 206 170 c 0
 205 100 258 100 297 100 c 2
 403 100 l 1
EndSplineSet
Colour: ffda6b
EndChar

StartChar: _.dal.isol
Encoding: 65592 -1 56
GlifName: _.dal.isol
Width: 587
VWidth: 1304
GlyphClass: 1
UnlinkRmOvrlpSave: 1
Flags: HMW
LayerCount: 2
Fore
SplineSet
75 73 m 0
 75 92 81 106 97 106 c 0
 101 106 105 105 111 103 c 0
 137 93 170 88 204 88 c 0
 299 88 405 127 429 194 c 1
 397 299 290 368 206 427 c 0
 203 430 201 437 201 447 c 0
 201 476 215 524 239 524 c 0
 243 524 247 523 251 521 c 0
 366 437 512 345 512 185 c 0
 512 180 512 175 512 170 c 0
 494 56 338 -19 206 -19 c 0
 165 -19 126 -11 95 4 c 0
 88 8 75 45 75 73 c 0
EndSplineSet
Colour: ffda6b
EndChar

StartChar: _.dal.fina
Encoding: 65593 -1 57
GlifName: _.dal.fina
Width: 651
VWidth: 1304
GlyphClass: 1
UnlinkRmOvrlpSave: 1
Flags: HMW
LayerCount: 2
Fore
SplineSet
75 73 m 0
 75 92 81 106 97 106 c 0
 101 106 105 105 111 103 c 0
 137 93 170 88 203 88 c 0
 290 88 388 121 422 178 c 1
 302 473 l 2
 297 487 342 539 371 539 c 0
 379 539 386 536 390 527 c 2
 489 279 l 1
 526 177 554 100 651 100 c 1
 651 -0 l 1
 560 0 511 23 470 85 c 1
 410 20 302 -19 206 -19 c 0
 165 -19 126 -11 95 4 c 0
 88 8 75 45 75 73 c 0
EndSplineSet
Colour: ffda6b
EndChar

StartChar: _.ree.isol
Encoding: 65594 -1 58
GlifName: _.ree.isol
Width: 577
VWidth: 1304
GlyphClass: 1
UnlinkRmOvrlpSave: 1
Flags: HMW
LayerCount: 2
Fore
SplineSet
75 -250 m 0
 75 -242 80 -236 91 -232 c 0
 319 -155 410 -27 410 66 c 0
 410 69 409 72 409 75 c 0
 397 157 365 235 345 292 c 0
 344 295 344 298 344 302 c 0
 344 332 381 368 410 368 c 0
 422 368 434 361 439 345 c 0
 464 276 502 143 502 59 c 0
 502 -100 327 -258 163 -302 c 0
 158 -304 153 -304 148 -304 c 0
 114 -304 75 -273 75 -250 c 0
EndSplineSet
Colour: ffda6b
EndChar

StartChar: _.ree.fina
Encoding: 65595 -1 59
GlifName: _.ree.fina
Width: 650
VWidth: 1304
GlyphClass: 1
UnlinkRmOvrlpSave: 1
Flags: HMW
LayerCount: 2
Fore
SplineSet
75 -250 m 0
 75 -242 80 -236 91 -232 c 0
 319 -155 410 -27 410 66 c 0
 410 79 408 88 405 100 c 0
 391 173 381 177 364 229 c 0
 363 233 362 236 362 240 c 0
 362 270 399 305 428 305 c 0
 460 305 469 251 476 224 c 0
 498 155 526 100 650 100 c 1
 650 -0 l 1
 584 0 532 10 499 31 c 1
 481 -118 317 -261 163 -302 c 0
 158 -304 153 -304 148 -304 c 0
 114 -304 75 -273 75 -250 c 0
EndSplineSet
Colour: ffda6b
EndChar

StartChar: _.he8.isol
Encoding: 65596 -1 60
GlifName: _.he8.isol
Width: 553
VWidth: 1304
GlyphClass: 1
UnlinkRmOvrlpSave: 1
Flags: HMW
LayerCount: 2
Fore
SplineSet
195 406 m 1
 182 417 173 429 173 447 c 0
 173 476 196 508 230 508 c 0
 232 508 235 507 238 507 c 1
 430 360 478 280 478 188 c 0
 478 65 374 0 271 -0 c 0
 131 0 75 59 75 152 c 0
 75 238 112 303 195 406 c 1
165 170 m 0
 165 123 190 100 271 100 c 0
 325 100 383 120 383 186 c 0
 383 232 359 268 267 347 c 1
 206 268 165 219 165 170 c 0
EndSplineSet
Colour: ffda6b
EndChar

StartChar: _.he8.fina
Encoding: 65597 -1 61
GlifName: _.he8.fina
Width: 607
VWidth: 1304
GlyphClass: 1
UnlinkRmOvrlpSave: 1
Flags: HMW
LayerCount: 2
Fore
SplineSet
75 223 m 0
 75 296 158 394 312 464 c 1
 307 523 l 2
 307 523 l 0
 307 536 349 571 376 571 c 0
 386 571 395 566 397 554 c 1
 418 325 l 1
 436 188 450 100 576 100 c 2
 607 100 l 1
 607 -0 l 1
 576 -0 l 2
 460 0 399 37 363 119 c 1
 248 119 l 2
 131 119 75 163 75 223 c 0
164 246 m 0
 164 230 191 220 262 220 c 2
 336 220 l 1
 322 356 l 1
 242 317 164 273 164 246 c 0
EndSplineSet
Colour: ffda6b
EndChar

StartChar: _.he8.medi
Encoding: 65598 -1 62
GlifName: _.he8.medi
Width: 574
VWidth: 1304
GlyphClass: 1
UnlinkRmOvrlpSave: 1
Flags: HMW
LayerCount: 2
Fore
SplineSet
478 -130 m 0
 478 -200 425 -254 349 -254 c 0
 258 -254 119 -189 96 -1 c 1
 0 -1 l 2
 -26 -1 -50 24 -50 50 c 0
 -50 76 -26 100 0 100 c 2
 60 100 l 2
 71 100 82 100 93 101 c 1
 113 332 288 500 394 500 c 1
 438 430 464 277 464 190 c 0
 464 181 464 173 463 165 c 0
 462 149 438 128 389 100 c 1
 574 100 l 1
 574 -0 l 1
 419 -0 l 1
 460 -44 478 -90 478 -130 c 0
185 111 m 1
 370 199 l 1
 371 207 371 214 371 222 c 0
 371 265 361 309 335 373 c 1
 249 300 197 207 185 111 c 1
345 -140 m 0
 369 -140 386 -134 386 -118 c 0
 386 -95 347 -54 254 -3 c 1
 197 -3 l 1
 210 -66 264 -140 345 -140 c 0
EndSplineSet
Colour: ffda6b
EndChar

StartChar: _.he8.init
Encoding: 65599 -1 63
GlifName: _.he8.init
Width: 761
VWidth: 1304
GlyphClass: 1
UnlinkRmOvrlpSave: 1
Flags: HMW
LayerCount: 2
Fore
SplineSet
686 180 m 1
 682 77 602 0 494 -0 c 0
 444 0 355 21 269 53 c 1
 207 20 130 0 40 -0 c 2
 0 -0 l 1
 -25 1 -50 24 -50 50 c 0
 -49 75 -26 100 -1 100 c 2
 44 100 l 2
 78 100 110 105 140 112 c 1
 136 114 133 117 129 119 c 0
 72 154 49 206 49 262 c 0
 49 344 98 434 163 485 c 1
 156 492 144 528 144 556 c 0
 144 575 149 589 165 589 c 0
 167 589 170 589 173 588 c 0
 529 480 676 354 686 180 c 1
341 287 m 0
 341 335 317 417 271 417 c 0
 227 417 157 346 157 279 c 0
 157 222 213 191 261 168 c 1
 300 198 327 230 333 250 c 1
 339 257 341 271 341 287 c 0
502 100 m 0
 553 100 593 125 593 180 c 0
 593 231 539 303 433 369 c 1
 438 347 440 324 440 302 c 0
 440 281 438 260 433 241 c 0
 422 200 399 161 367 127 c 1
 417 111 468 100 502 100 c 0
EndSplineSet
Colour: ffda6b
EndChar

StartChar: _.yeh.fina
Encoding: 65600 -1 64
GlifName: _.yeh.fina
Width: 865
VWidth: 1304
GlyphClass: 1
UnlinkRmOvrlpSave: 1
Flags: HMW
LayerCount: 2
Fore
SplineSet
75 -71 m 0
 75 -13 90 58 126 146 c 0
 130 157 169 250 174 261 c 0
 179 274 189 279 201 279 c 0
 224 279 253 258 253 237 c 0
 253 233 253 229 251 226 c 0
 246 214 206 119 201 108 c 0
 176 45 166 -6 166 -46 c 0
 166 -175 273 -200 360 -200 c 0
 484 -199 585 -163 649 -117 c 1
 671 -99 681 -80 681 -60 c 0
 681 -3 603 55 526 60 c 0
 511 60 506 70 506 83 c 0
 506 112 534 160 546 160 c 0
 659 159 754 100 865 100 c 1
 865 -0 l 1
 829 0 795 5 761 12 c 1
 778 -16 787 -42 787 -67 c 0
 787 -115 757 -157 700 -197 c 0
 620 -257 500 -301 350 -301 c 0
 219 -301 75 -249 75 -71 c 0
EndSplineSet
Colour: ffda6b
EndChar

StartChar: _.yeh.isol
Encoding: 65601 -1 65
GlifName: _.yeh.isol
Width: 966
VWidth: 1304
GlyphClass: 1
UnlinkRmOvrlpSave: 1
Flags: HMW
LayerCount: 2
Fore
SplineSet
75 -71 m 0
 75 -13 90 58 126 146 c 0
 130 157 169 250 174 261 c 0
 179 274 189 279 201 279 c 0
 224 279 253 258 253 237 c 0
 253 233 253 229 251 226 c 0
 246 214 206 119 201 108 c 0
 176 45 166 -6 166 -46 c 0
 166 -175 273 -200 360 -200 c 0
 500 -199 610 -153 672 -100 c 0
 684 -90 688 -81 688 -72 c 0
 688 -38 610 -16 571 -0 c 0
 516 21 493 64 493 114 c 0
 493 145 501 179 516 212 c 0
 557 303 636 371 734 371 c 0
 782 371 835 354 891 316 c 1
 851 241 l 1
 820 253 791 260 761 260 c 0
 759 260 756 260 754 260 c 0
 641 260 593 165 593 123 c 0
 593 113 596 105 601 103 c 0
 665 78 798 36 798 -52 c 0
 798 -78 787 -108 758 -143 c 0
 754 -152 746 -157 739 -164 c 0
 660 -240 527 -301 350 -301 c 0
 219 -301 75 -249 75 -71 c 0
EndSplineSet
Colour: ffda6b
EndChar

StartChar: _.hamze.isol
Encoding: 65602 -1 66
GlifName: _.hamze.isol
Width: 481
VWidth: 1304
GlyphClass: 2
Flags: HMW
LayerCount: 2
Fore
SplineSet
185 230 m 0
 185 210 209 170 231 170 c 0
 238 170 252 174 272 180 c 0
 292 187 331 194 391 204 c 1
 406 107 l 1
 333 93 295 86 289 84 c 0
 239 68 181 40 116 -1 c 1
 75 86 l 1
 114 109 138 123 145 127 c 1
 109 162 94 201 94 238 c 0
 94 316 160 384 243 384 c 0
 280 384 321 370 361 338 c 1
 308 263 l 1
 289 279 268 286 250 286 c 0
 214 286 185 261 185 230 c 0
EndSplineSet
Colour: ffda6b
EndChar

StartChar: _.keshide.medi
Encoding: 65603 -1 67
GlifName: _.keshide.medi
Width: 350
VWidth: 1304
GlyphClass: 2
Flags: HMW
LayerCount: 2
Fore
SplineSet
-50 -0 m 1
 -50 100 l 1
 350 100 l 1
 350 -0 l 1
 -50 -0 l 1
EndSplineSet
Colour: ffda6b
EndChar

StartChar: _.dot.1u
Encoding: 65604 -1 68
GlifName: _.dot.1u
Width: 0
VWidth: 1304
GlyphClass: 2
Flags: HMW
LayerCount: 2
Fore
SplineSet
0 75 m 0
 0 85 4 94 11 101 c 2
 48 139 l 2
 55 146 65 150 75 150 c 0
 85 150 94 146 101 139 c 2
 139 101 l 2
 146 94 150 85 150 75 c 0
 150 65 146 56 139 49 c 2
 101 11 l 2
 94 4 85 0 75 -0 c 0
 65 0 55 4 48 11 c 2
 11 49 l 2
 4 56 0 65 0 75 c 0
EndSplineSet
Colour: ffda6b
EndChar

StartChar: _.dot.2u
Encoding: 65605 -1 69
GlifName: _.dot.2u
Width: 0
VWidth: 1304
GlyphClass: 2
UnlinkRmOvrlpSave: 1
Flags: HMW
LayerCount: 2
Fore
SplineSet
0 70 m 0
 0 79 3 88 10 95 c 2
 46 130 l 2
 53 137 61 140 70 140 c 0
 79 140 88 137 95 130 c 2
 131 95 l 2
 138 88 141 79 141 70 c 0
 141 61 138 52 131 45 c 2
 95 10 l 2
 88 3 79 0 70 -0 c 0
 61 0 53 3 46 10 c 2
 10 45 l 2
 3 52 0 61 0 70 c 0
175 70 m 0
 175 79 178 88 185 95 c 2
 221 130 l 2
 228 137 236 140 245 140 c 0
 254 140 263 137 270 130 c 2
 306 95 l 2
 313 88 316 79 316 70 c 0
 316 61 313 52 306 45 c 2
 270 10 l 2
 263 3 254 0 245 -0 c 0
 236 0 228 3 221 10 c 2
 185 45 l 2
 178 52 175 61 175 70 c 0
EndSplineSet
Colour: ffda6b
EndChar

StartChar: _.dot.3u
Encoding: 65606 -1 70
GlifName: _.dot.3u
Width: 0
VWidth: 1304
GlyphClass: 2
UnlinkRmOvrlpSave: 1
Flags: HMW
LayerCount: 2
Fore
SplineSet
0 70 m 0
 0 79 3 88 10 95 c 2
 46 130 l 2
 53 137 61 140 70 140 c 0
 79 140 88 137 95 130 c 2
 131 95 l 2
 138 88 141 79 141 70 c 0
 141 61 138 52 131 45 c 2
 95 10 l 2
 88 3 79 0 70 -0 c 0
 61 0 53 3 46 10 c 2
 10 45 l 2
 3 52 0 61 0 70 c 0
91 218 m 0
 91 226 94 234 101 241 c 2
 133 273 l 2
 139 279 148 282 156 282 c 0
 164 282 173 279 179 273 c 2
 212 241 l 2
 218 234 221 226 221 218 c 0
 221 210 218 201 212 194 c 2
 179 162 l 2
 173 156 164 153 156 153 c 0
 148 153 139 156 133 162 c 2
 101 194 l 2
 94 201 91 210 91 218 c 0
175 70 m 0
 175 79 178 88 185 95 c 2
 221 130 l 2
 228 137 236 140 245 140 c 0
 254 140 263 137 270 130 c 2
 306 95 l 2
 313 88 316 79 316 70 c 0
 316 61 313 52 306 45 c 2
 270 10 l 2
 263 3 254 0 245 -0 c 0
 236 0 228 3 221 10 c 2
 185 45 l 2
 178 52 175 61 175 70 c 0
EndSplineSet
Colour: ffda6b
EndChar

StartChar: _.dot.1d
Encoding: 65607 -1 71
GlifName: _.dot.1d
Width: 0
VWidth: 1304
GlyphClass: 2
Flags: HMW
LayerCount: 2
Fore
SplineSet
0 -76 m 0
 0 -66 4 -56 11 -49 c 2
 48 -12 l 2
 55 -5 65 -1 75 -1 c 0
 85 -1 94 -5 101 -12 c 2
 139 -49 l 2
 146 -56 150 -66 150 -76 c 0
 150 -86 146 -95 139 -102 c 2
 101 -141 l 2
 94 -148 85 -152 75 -152 c 0
 65 -152 55 -148 48 -141 c 2
 11 -102 l 2
 4 -95 0 -86 0 -76 c 0
EndSplineSet
Colour: ffda6b
EndChar

StartChar: _.dot.2d
Encoding: 65608 -1 72
GlifName: _.dot.2d
Width: 0
VWidth: 1304
GlyphClass: 2
UnlinkRmOvrlpSave: 1
Flags: HMW
LayerCount: 2
Fore
SplineSet
0 -71 m 0
 0 -62 3 -53 10 -46 c 2
 46 -11 l 2
 53 -4 61 -1 70 -1 c 0
 79 -1 88 -4 95 -11 c 2
 131 -46 l 2
 138 -53 141 -62 141 -71 c 0
 141 -80 138 -89 131 -96 c 2
 95 -131 l 2
 88 -138 79 -141 70 -141 c 0
 61 -141 53 -138 46 -131 c 2
 10 -96 l 2
 3 -89 0 -80 0 -71 c 0
175 -71 m 0
 175 -62 178 -53 185 -46 c 2
 221 -11 l 2
 228 -4 236 -1 245 -1 c 0
 254 -1 263 -4 270 -11 c 2
 306 -46 l 2
 313 -53 316 -62 316 -71 c 0
 316 -80 313 -89 306 -96 c 2
 270 -131 l 2
 263 -138 254 -141 245 -141 c 0
 236 -141 228 -138 221 -131 c 2
 185 -96 l 2
 178 -89 175 -80 175 -71 c 0
EndSplineSet
Colour: ffda6b
EndChar

StartChar: _.dot.3d
Encoding: 65609 -1 73
GlifName: _.dot.3d
Width: 0
VWidth: 1304
GlyphClass: 2
UnlinkRmOvrlpSave: 1
Flags: HMW
LayerCount: 2
Fore
SplineSet
0 -72 m 0
 0 -63 3 -54 10 -47 c 2
 46 -12 l 2
 53 -5 61 -1 70 -1 c 0
 79 -1 88 -5 95 -12 c 2
 131 -47 l 2
 138 -54 141 -63 141 -72 c 0
 141 -81 138 -89 131 -96 c 2
 95 -132 l 2
 88 -139 79 -142 70 -142 c 0
 61 -142 53 -139 46 -132 c 2
 10 -96 l 2
 3 -89 0 -81 0 -72 c 0
91 -204 m 0
 91 -196 94 -187 101 -181 c 2
 133 -148 l 2
 139 -142 148 -139 156 -139 c 0
 164 -139 173 -142 179 -148 c 2
 212 -181 l 2
 218 -187 221 -196 221 -204 c 0
 221 -212 218 -221 212 -227 c 2
 179 -260 l 2
 173 -266 164 -269 156 -269 c 0
 148 -269 139 -266 133 -260 c 2
 101 -227 l 2
 94 -221 91 -212 91 -204 c 0
175 -72 m 0
 175 -63 178 -54 185 -47 c 2
 221 -12 l 2
 228 -5 236 -1 245 -1 c 0
 254 -1 263 -5 270 -12 c 2
 306 -47 l 2
 313 -54 316 -63 316 -72 c 0
 316 -81 313 -89 306 -96 c 2
 270 -132 l 2
 263 -139 254 -142 245 -142 c 0
 236 -142 228 -139 221 -132 c 2
 185 -96 l 2
 178 -89 175 -81 175 -72 c 0
EndSplineSet
Colour: ffda6b
EndChar

StartChar: _.num.0.fa
Encoding: 65611 -1 75
GlifName: _.num.0
Width: 491
VWidth: 1424
GlyphClass: 2
Flags: HMW
LayerCount: 2
Fore
SplineSet
75 235 m 0
 75 336 141 426 246 426 c 0
 344 426 416 341 416 246 c 0
 416 149 344 66 246 66 c 0
 152 66 75 141 75 235 c 0
158 244 m 0
 158 202 187 160 249 160 c 0
 250 160 l 0
 309 160 338 203 338 246 c 0
 338 290 308 333 249 333 c 0
 190 333 158 288 158 244 c 0
EndSplineSet
Colour: ffda6b
EndChar

StartChar: _.num.1
Encoding: 65612 -1 76
GlifName: _.num.1
Width: 351
VWidth: 1331
GlyphClass: 2
Flags: HMW
LayerCount: 2
Fore
SplineSet
75 629 m 0
 75 660 132 709 162 709 c 0
 168 709 174 708 177 702 c 0
 240 574 276 370 276 191 c 2
 276 -0 l 2
 276 -13 243 -25 215 -25 c 0
 194 -25 177 -18 177 -0 c 2
 177 181 l 2
 177 300 161 450 77 620 c 0
 76 623 75 626 75 629 c 0
EndSplineSet
Colour: ffda6b
EndChar

StartChar: _.num.2
Encoding: 65613 -1 77
GlifName: _.num.2
Width: 682
VWidth: 1331
GlyphClass: 2
Flags: HMW
LayerCount: 2
Fore
SplineSet
75 629 m 0
 75 660 132 709 162 709 c 0
 168 709 174 708 177 702 c 0
 189 676 201 648 211 617 c 0
 213 610 216 603 217 596 c 0
 248 515 316 471 379 471 c 0
 447 471 508 521 508 628 c 0
 508 639 506 651 506 663 c 0
 506 681 530 691 554 691 c 0
 578 691 602 682 604 660 c 0
 606 642 607 624 607 607 c 0
 607 436 497 356 380 356 c 0
 341 356 301 365 264 383 c 1
 273 319 276 254 276 191 c 2
 276 -0 l 2
 276 -13 243 -25 215 -25 c 0
 194 -25 177 -18 177 -0 c 2
 177 181 l 2
 177 300 161 450 77 620 c 0
 76 623 75 626 75 629 c 0
EndSplineSet
Colour: ffda6b
EndChar

StartChar: _.num.3
Encoding: 65614 -1 78
GlifName: _.num.3
Width: 862
VWidth: 1331
GlyphClass: 2
Flags: HMW
LayerCount: 2
Fore
SplineSet
75 629 m 0
 75 660 132 709 162 709 c 0
 168 709 174 708 177 702 c 0
 199 656 217 601 233 541 c 1
 262 495 301 471 337 471 c 0
 386 471 429 518 429 617 c 0
 429 631 427 646 427 662 c 0
 427 681 450 691 474 691 c 0
 497 691 522 682 524 660 c 0
 527 638 528 618 528 599 c 0
 528 576 526 554 523 534 c 1
 547 512 573 501 597 501 c 0
 646 501 689 547 689 646 c 0
 689 660 686 675 686 691 c 0
 686 710 710 721 734 721 c 0
 757 721 782 711 784 689 c 0
 787 667 787 647 787 628 c 0
 787 464 700 386 603 386 c 0
 562 386 519 400 481 427 c 1
 446 379 395 355 342 355 c 0
 316 355 290 361 265 372 c 1
 272 312 276 250 276 191 c 2
 276 -0 l 2
 276 -13 243 -25 215 -25 c 0
 194 -25 177 -18 177 -0 c 2
 177 181 l 2
 177 300 161 450 77 620 c 0
 76 623 75 626 75 629 c 0
EndSplineSet
Colour: ffda6b
EndChar

StartChar: _.num.4.fa
Encoding: 65615 -1 79
GlifName: _.num.4.fa
Width: 738
VWidth: 1331
GlyphClass: 2
Flags: HMW
LayerCount: 2
Fore
SplineSet
380 555 m 0
 380 497 422 427 488 427 c 0
 523 427 577 440 624 466 c 0
 627 468 629 469 631 469 c 0
 649 469 663 430 663 400 c 0
 663 385 660 373 652 368 c 0
 588 339 527 319 453 319 c 0
 400 319 341 329 268 353 c 1
 274 299 276 244 276 191 c 2
 276 -0 l 2
 276 -13 243 -25 215 -25 c 0
 194 -25 177 -18 177 -0 c 2
 177 181 l 2
 177 300 161 450 77 620 c 0
 76 623 75 626 75 629 c 0
 75 660 132 709 162 709 c 0
 168 709 174 708 177 702 c 0
 209 637 235 551 252 460 c 1
 272 446 299 431 320 431 c 1
 297 464 284 507 284 550 c 0
 284 649 347 752 472 752 c 0
 504 752 541 746 582 730 c 0
 601 724 608 707 608 688 c 0
 608 662 595 635 582 635 c 0
 581 635 580 635 579 635 c 0
 545 645 516 649 491 649 c 0
 411 649 380 604 380 555 c 0
EndSplineSet
Colour: ffda6b
EndChar

StartChar: _.num.4.ar
Encoding: 65616 -1 80
GlifName: _.num.4.ar
Width: 469
VWidth: 1331
GlyphClass: 2
Flags: HMW
LayerCount: 2
Fore
SplineSet
75 581 m 0
 75 682 246 767 331 800 c 1
 366 695 l 1
 335 684 167 605 167 580 c 0
 167 544 326 467 356 453 c 1
 252 349 173 282 173 230 c 0
 173 184 235 151 394 116 c 1
 380 4 l 1
 282 14 79 65 79 191 c 0
 79 257 119 335 199 422 c 1
 117 475 75 528 75 581 c 0
EndSplineSet
Colour: ffda6b
EndChar

StartChar: _.num.5.fa
Encoding: 65617 -1 81
GlifName: _.num.5.fa
Width: 727
VWidth: 1331
GlyphClass: 2
Flags: HMW
LayerCount: 2
Fore
SplineSet
75 167 m 0
 75 267 134 410 295 585 c 1
 280 596 268 608 252 620 c 1
 247 627 245 634 245 642 c 0
 245 669 271 697 299 697 c 0
 303 697 308 696 312 695 c 1
 568 492 652 319 652 195 c 0
 652 67 562 -7 477 -7 c 0
 434 -7 393 12 364 54 c 1
 321 15 272 -3 227 -3 c 0
 145 -3 75 57 75 167 c 0
169 186 m 0
 169 121 207 88 245 88 c 0
 284 88 324 123 324 197 c 0
 324 202 323 207 323 212 c 1
 414 212 l 1
 416 128 453 90 490 90 c 0
 526 90 561 126 561 190 c 0
 561 265 514 379 366 521 c 1
 217 373 169 259 169 186 c 0
EndSplineSet
Colour: ffda6b
EndChar

StartChar: _.num.5.ar
Encoding: 65618 -1 82
GlifName: _.num.5.ar
Width: 699
VWidth: 1331
GlyphClass: 2
Flags: HMW
LayerCount: 2
Fore
SplineSet
75 289 m 0
 75 451 161 586 336 693 c 1
 341 693 l 1
 529 598 624 459 624 274 c 0
 624 88 530 -4 343 -4 c 0
 163 -4 75 94 75 289 c 0
178 289 m 0
 178 168 233 109 341 109 c 0
 462 109 522 169 522 288 c 0
 522 390 462 481 341 560 c 1
 233 468 178 378 178 289 c 0
EndSplineSet
Colour: ffda6b
EndChar

StartChar: _.num.6.fa
Encoding: 65619 -1 83
GlifName: _.num.6.fa
Width: 659
VWidth: 1331
GlyphClass: 2
Flags: HMW
LayerCount: 2
Fore
SplineSet
459 598 m 0
 446 598 433 600 421 600 c 0
 307 600 230 532 230 466 c 0
 230 415 277 365 388 351 c 1
 435 389 483 422 529 445 c 0
 531 446 534 447 536 447 c 0
 558 447 584 401 584 371 c 0
 584 360 580 351 572 347 c 0
 411 265 319 166 256 84 c 1
 162 -42 l 2
 157 -48 151 -50 143 -50 c 0
 115 -50 75 -18 75 -3 c 0
 75 -2 75 0 76 1 c 2
 177 134 l 2
 210 178 249 222 292 264 c 1
 287 261 l 1
 174 282 123 362 123 449 c 0
 123 569 219 700 379 700 c 0
 400 700 422 698 445 693 c 0
 469 689 479 664 479 641 c 0
 479 619 471 598 459 598 c 0
EndSplineSet
Colour: ffda6b
EndChar

StartChar: _.num.6.ar
Encoding: 65620 -1 84
GlifName: _.num.6.ar
Width: 657
VWidth: 1331
GlyphClass: 2
Flags: HMW
LayerCount: 2
Fore
SplineSet
75 643 m 0
 75 671 110 707 135 707 c 0
 139 707 143 706 146 704 c 0
 188 663 242 648 298 648 c 0
 361 648 427 667 484 688 c 0
 485 688 487 689 488 689 c 0
 497 689 506 679 506 665 c 0
 506 592 480 484 480 377 c 0
 480 257 502 142 582 98 c 1
 538 -0 l 1
 529 5 l 1
 416 68 388 230 388 377 c 0
 388 444 394 507 400 556 c 1
 351 545 308 538 269 538 c 0
 204 538 148 558 85 621 c 0
 78 627 75 635 75 643 c 0
EndSplineSet
Colour: ffda6b
EndChar

StartChar: _.num.7
Encoding: 65621 -1 85
GlifName: _.num.7
Width: 671
VWidth: 1331
GlyphClass: 2
Flags: HMW
LayerCount: 2
Fore
SplineSet
75 619 m 0
 75 650 129 705 157 705 c 0
 163 705 167 703 170 698 c 0
 222 614 337 292 336 196 c 1
 338 288 449 614 501 698 c 0
 504 703 508 705 514 705 c 0
 542 705 596 650 596 619 c 0
 596 615 596 611 594 608 c 0
 507 474 390 63 386 5 c 0
 384 -10 360 -18 336 -18 c 0
 312 -18 288 -10 286 5 c 1
 287 83 180 446 78 608 c 0
 76 611 75 615 75 619 c 0
EndSplineSet
Colour: ffda6b
EndChar

StartChar: _.num.8
Encoding: 65622 -1 86
GlifName: _.num.8
Width: 671
VWidth: 1331
GlyphClass: 2
Flags: HMW
LayerCount: 2
Fore
SplineSet
75 68 m 0
 75 72 76 76 78 79 c 0
 180 241 287 604 286 682 c 1
 288 697 312 705 336 705 c 0
 360 705 384 697 386 682 c 0
 390 624 507 212 594 79 c 0
 596 76 596 72 596 68 c 0
 596 36 542 -19 514 -19 c 0
 509 -19 504 -16 501 -12 c 0
 449 73 338 399 336 491 c 1
 337 395 222 73 170 -12 c 0
 167 -16 162 -19 157 -19 c 0
 129 -19 75 36 75 68 c 0
EndSplineSet
Colour: ffda6b
EndChar

StartChar: _.num.9
Encoding: 65623 -1 87
GlifName: _.num.9
Width: 624
VWidth: 1331
GlyphClass: 2
Flags: HMW
LayerCount: 2
Fore
SplineSet
281 704 m 0
 373 704 449 645 449 529 c 0
 449 512 448 494 447 476 c 0
 449 362 469 222 547 64 c 0
 548 61 549 58 549 55 c 0
 549 24 492 -25 462 -25 c 0
 456 -25 450 -23 447 -17 c 0
 406 67 377 181 361 300 c 1
 227 300 l 2
 125 300 75 384 75 476 c 0
 75 585 145 704 279 704 c 0
 280 704 280 704 281 704 c 0
268 602 m 0
 209 602 171 532 171 476 c 0
 171 435 191 400 238 400 c 2
 350 400 l 1
 349 425 347 449 347 474 c 0
 346 567 308 602 268 602 c 0
EndSplineSet
Colour: ffda6b
EndChar

StartChar: _.sing.backslash
Encoding: 65624 -1 88
GlifName: _.sing.backslash
Width: 454
VWidth: 1197
GlyphClass: 2
Flags: HMW
LayerCount: 2
Fore
SplineSet
75 685 m 0
 75 700 99 708 123 708 c 0
 146 708 170 701 175 687 c 2
 379 -0 l 1
 378 -16 361 -22 341 -22 c 0
 312 -22 276 -10 275 -0 c 1
 76 679 l 2
 75 681 75 683 75 685 c 0
EndSplineSet
Colour: ffda6b
EndChar

StartChar: _.sing.slash
Encoding: 65625 -1 89
GlifName: _.sing.slash
Width: 454
VWidth: 1197
GlyphClass: 2
Flags: HMW
LayerCount: 2
Fore
SplineSet
75 -0 m 1
 279 687 l 2
 284 701 308 708 331 708 c 0
 355 708 379 700 379 685 c 0
 379 683 379 681 378 679 c 2
 178 -0 l 1
 177 -10 142 -22 113 -22 c 0
 93 -22 76 -16 75 -0 c 1
EndSplineSet
Colour: ffda6b
EndChar

StartChar: _.sing.tajob
Encoding: 65626 -1 90
GlifName: _.sing.tajob
Width: 300
VWidth: 1197
GlyphClass: 2
Flags: HMW
LayerCount: 2
Fore
SplineSet
75 75 m 0
 75 85 78 94 85 101 c 2
 123 139 l 2
 130 146 140 150 150 150 c 0
 160 150 169 146 176 139 c 2
 214 101 l 2
 221 94 225 85 225 75 c 0
 225 65 221 56 214 49 c 2
 176 11 l 2
 169 4 160 0 150 -0 c 0
 140 0 130 4 123 11 c 2
 85 49 l 2
 78 56 75 65 75 75 c 0
104 500 m 2
 104 763 l 2
 104 781 128 791 153 791 c 0
 178 791 202 781 203 763 c 2
 203 500 l 2
 203 495 203 489 203 484 c 0
 203 403 202 296 174 234 c 1
 133 234 l 1
 105 292 104 387 104 481 c 0
 104 487 104 494 104 500 c 2
EndSplineSet
Colour: ffda6b
EndChar

StartChar: _.sing.soal
Encoding: 65627 -1 91
GlifName: _.sing.soal
Width: 516
VWidth: 1304
GlyphClass: 2
Flags: HMW
LayerCount: 2
Fore
SplineSet
260 198 m 0
 234 198 196 226 196 248 c 0
 196 252 197 255 199 258 c 0
 255 327 270 335 270 372 c 0
 270 467 75 447 75 618 c 0
 75 711 163 800 265 800 c 0
 311 800 367 783 414 743 c 1
 433 731 441 716 441 701 c 0
 441 676 419 654 395 654 c 0
 390 654 384 655 379 657 c 1
 348 686 309 698 273 698 c 0
 215 698 162 666 162 623 c 0
 162 536 369 546 369 382 c 0
 369 305 320 256 282 207 c 0
 276 201 268 198 260 198 c 0
158 75 m 0
 158 85 162 94 169 101 c 2
 206 139 l 2
 213 146 222 150 232 150 c 0
 242 150 251 146 258 139 c 2
 297 101 l 2
 304 94 308 85 308 75 c 0
 308 65 304 55 297 48 c 2
 258 11 l 2
 251 4 242 0 232 -0 c 0
 222 0 213 4 206 11 c 2
 169 48 l 2
 162 55 158 65 158 75 c 0
EndSplineSet
Colour: ffda6b
EndChar

StartChar: _.sing.beezafeh
Encoding: 65628 -1 92
GlifName: _.sing.beezafeh
Width: 553
VWidth: 1352
GlyphClass: 2
Flags: HMW
LayerCount: 2
Fore
SplineSet
75 296 m 0
 75 316 91 336 122 336 c 2
 243 336 l 1
 243 460 l 2
 243 484 263 497 283 497 c 0
 303 497 322 485 323 460 c 2
 323 336 l 1
 440 336 l 2
 465 336 478 316 478 296 c 0
 478 276 466 257 440 256 c 2
 323 256 l 1
 323 143 l 2
 322 112 302 96 282 96 c 0
 262 96 243 112 243 143 c 2
 243 256 l 1
 122 256 l 2
 91 257 75 276 75 296 c 0
EndSplineSet
Colour: ffda6b
EndChar

StartChar: _.sing.menha
Encoding: 65629 -1 93
GlifName: _.sing.menha
Width: 553
VWidth: 0
GlyphClass: 2
Flags: HMW
LayerCount: 2
Fore
SplineSet
75 296 m 0
 75 316 91 336 122 336 c 2
 440 336 l 2
 465 336 478 316 478 296 c 0
 478 276 466 257 440 256 c 2
 122 256 l 2
 91 257 75 276 75 296 c 0
EndSplineSet
Colour: ffda6b
EndChar

StartChar: _.sing.khateh_tire
Encoding: 65630 -1 94
GlifName: _.sing.khateh_tire
Width: 533
VWidth: 0
GlyphClass: 2
Flags: HMW
LayerCount: 2
Fore
SplineSet
75 241 m 0
 75 257 85 273 108 282 c 2
 221 322 l 1
 178 439 l 2
 176 443 176 448 176 452 c 0
 176 474 198 491 220 491 c 0
 234 491 248 483 255 466 c 2
 296 351 l 1
 406 390 l 2
 410 392 415 392 419 392 c 0
 442 392 458 370 458 349 c 0
 458 335 451 322 434 315 c 2
 323 274 l 1
 363 167 l 2
 365 160 366 154 366 148 c 0
 366 123 348 107 328 107 c 0
 312 107 296 117 288 140 c 2
 248 247 l 1
 135 205 l 2
 128 203 122 202 116 202 c 0
 91 202 75 221 75 241 c 0
EndSplineSet
Colour: ffda6b
EndChar

StartChar: _.sing.virgul
Encoding: 65631 -1 95
GlifName: _.sing.virgul
Width: 320
VWidth: 1197
GlyphClass: 2
Flags: HMW
LayerCount: 2
Fore
SplineSet
75 106 m 0
 75 168 120 258 197 319 c 0
 200 321 203 321 206 321 c 0
 224 321 245 292 245 273 c 0
 245 268 244 264 240 261 c 0
 207 242 172 192 172 162 c 0
 172 156 174 150 177 146 c 0
 181 145 186 143 188 139 c 2
 226 101 l 2
 233 94 237 85 237 75 c 0
 237 65 233 55 226 48 c 2
 188 11 l 2
 181 4 172 0 162 -0 c 0
 152 0 142 4 135 11 c 2
 93 53 l 2
 81 65 75 84 75 106 c 0
EndSplineSet
Colour: ffda6b
EndChar

StartChar: _.sing.dot_virgul
Encoding: 65632 -1 96
GlifName: _.sing.dot_virgul
Width: 320
VWidth: 1304
GlyphClass: 2
Flags: HMW
LayerCount: 2
Fore
SplineSet
75 377 m 0
 75 438 120 527 197 588 c 0
 200 590 203 591 206 591 c 0
 224 591 245 562 245 543 c 0
 245 538 244 533 240 530 c 0
 207 512 172 463 172 433 c 0
 172 427 174 421 177 417 c 0
 181 415 186 413 188 409 c 2
 226 372 l 2
 233 365 237 355 237 345 c 0
 237 335 233 326 226 319 c 2
 188 280 l 2
 181 273 172 269 162 269 c 0
 152 269 142 273 135 280 c 2
 98 319 l 2
 96 320 94 322 93 324 c 0
 81 336 75 355 75 377 c 0
87 75 m 0
 87 85 91 94 98 101 c 2
 135 139 l 2
 142 146 152 150 162 150 c 0
 172 150 181 146 188 139 c 2
 226 101 l 2
 233 94 237 85 237 75 c 0
 237 65 233 55 226 48 c 2
 188 11 l 2
 181 4 172 0 162 -0 c 0
 152 0 142 4 135 11 c 2
 98 48 l 2
 91 55 87 65 87 75 c 0
EndSplineSet
Colour: ffda6b
EndChar

StartChar: _.sing.2noqte
Encoding: 65633 -1 97
GlifName: _.sing.2noqte
Width: 300
VWidth: 1352
GlyphClass: 2
Flags: HMW
LayerCount: 2
Fore
SplineSet
75 75 m 0
 75 85 79 94 86 101 c 2
 123 139 l 2
 130 146 139 150 149 150 c 0
 159 150 169 146 176 139 c 2
 214 101 l 2
 221 94 225 85 225 75 c 0
 225 65 221 55 214 48 c 2
 176 11 l 2
 169 4 159 0 149 -0 c 0
 139 0 130 4 123 11 c 2
 86 48 l 2
 79 55 75 65 75 75 c 0
75 345 m 0
 75 355 79 365 86 372 c 2
 123 409 l 2
 130 416 139 420 149 420 c 0
 159 420 169 416 176 409 c 2
 214 372 l 2
 221 365 225 355 225 345 c 0
 225 335 221 326 214 319 c 2
 176 280 l 2
 169 273 159 269 149 269 c 0
 139 269 130 273 123 280 c 2
 86 319 l 2
 79 326 75 335 75 345 c 0
EndSplineSet
Colour: ffda6b
EndChar

StartChar: _.sing.noqte
Encoding: 65634 -1 98
GlifName: _.sing.noqte
Width: 300
VWidth: 1352
GlyphClass: 2
Flags: HMW
LayerCount: 2
Fore
SplineSet
75 75 m 0
 75 85 79 94 86 101 c 2
 124 139 l 2
 131 146 140 150 150 150 c 0
 160 150 170 146 177 139 c 2
 214 101 l 2
 221 94 225 85 225 75 c 0
 225 65 221 55 214 48 c 2
 177 11 l 2
 170 4 160 0 150 -0 c 0
 140 0 131 4 124 11 c 2
 86 48 l 2
 79 55 75 65 75 75 c 0
EndSplineSet
Colour: ffda6b
EndChar

StartChar: _.sing.gheiomeh.right
Encoding: 65635 -1 99
GlifName: _.sing.gheiomeh.right
Width: 642
VWidth: 1352
GlyphClass: 2
Flags: HMW
LayerCount: 2
Fore
SplineSet
75 248 m 0
 75 344 138 440 264 500 c 0
 266 501 269 501 271 501 c 0
 291 501 304 471 304 443 c 0
 304 424 298 406 284 400 c 0
 208 360 169 305 169 249 c 0
 169 194 207 139 284 100 c 1
 308 91 317 73 317 55 c 0
 317 27 295 -2 272 -2 c 0
 268 -2 265 -1 262 -0 c 0
 137 60 75 154 75 248 c 0
325 248 m 0
 325 344 388 440 514 500 c 0
 516 501 519 501 521 501 c 0
 541 501 554 471 554 443 c 0
 554 424 548 406 534 400 c 0
 458 360 419 305 419 249 c 0
 419 194 457 139 534 100 c 1
 558 91 567 73 567 55 c 0
 567 27 545 -2 522 -2 c 0
 518 -2 515 -1 512 -0 c 0
 387 60 325 154 325 248 c 0
EndSplineSet
Colour: ffda6b
EndChar

StartChar: _.sing.gheiomeh.left
Encoding: 65636 -1 100
GlifName: _.sing.gheiomeh.left
Width: 642
VWidth: 1352
GlyphClass: 2
Flags: HMW
LayerCount: 2
Fore
SplineSet
75 55 m 0
 75 73 84 91 108 100 c 1
 185 139 223 193 223 248 c 0
 223 304 184 360 108 400 c 0
 94 406 88 424 88 443 c 0
 88 471 101 501 121 501 c 0
 123 501 126 501 128 500 c 0
 254 440 317 344 317 248 c 0
 317 154 255 60 130 -0 c 0
 127 -1 124 -2 120 -2 c 0
 97 -2 75 27 75 55 c 0
325 55 m 0
 325 73 334 91 358 100 c 1
 435 139 473 193 473 248 c 0
 473 304 434 360 358 400 c 0
 344 406 337 424 337 443 c 0
 337 471 351 501 371 501 c 0
 373 501 376 501 378 500 c 0
 504 440 567 344 567 248 c 0
 567 154 505 60 380 -0 c 0
 377 -1 374 -2 370 -2 c 0
 347 -2 325 27 325 55 c 0
EndSplineSet
Colour: ffda6b
EndChar

StartChar: _.sing.parantez.right
Encoding: 65637 -1 101
GlifName: _.sing.parantez.right
Width: 401
VWidth: 1352
GlyphClass: 2
Flags: HMW
LayerCount: 2
Fore
SplineSet
75 247 m 0
 75 397 124 546 223 699 c 0
 231 712 253 717 275 717 c 0
 301 717 326 711 326 702 c 0
 326 701 325 700 325 699 c 0
 224 551 176 401 176 252 c 0
 176 100 226 -52 322 -203 c 1
 316 -212 293 -222 269 -222 c 0
 252 -222 235 -217 223 -203 c 1
 124 -51 75 98 75 247 c 0
EndSplineSet
Colour: ffda6b
EndChar

StartChar: _.sing.parantez.left
Encoding: 65638 -1 102
GlifName: _.sing.parantez.left
Width: 401
VWidth: 1352
GlyphClass: 2
Flags: HMW
LayerCount: 2
Fore
SplineSet
75 701 m 0
 75 710 101 717 127 717 c 0
 149 717 171 712 178 699 c 0
 277 546 326 396 326 247 c 0
 326 98 277 -51 178 -203 c 1
 166 -217 149 -222 132 -222 c 0
 108 -222 85 -212 79 -203 c 1
 175 -52 225 100 225 252 c 0
 225 401 177 551 76 699 c 0
 76 700 75 700 75 701 c 0
EndSplineSet
Colour: ffda6b
EndChar

StartChar: _.sing.parantez_tazeeni.right
Encoding: 65639 -1 103
GlifName: _.sing.parantez_tazeeni.right
Width: 916
VWidth: 0
GlyphClass: 2
Flags: HMW
LayerCount: 2
Fore
SplineSet
75 -484 m 1
 198 -367 286 -238 340 -100 c 1
 217 -100 l 1
 217 55 l 1
 111 161 l 1
 217 267 l 1
 217 420 l 1
 340 420 l 1
 280 567 185 697 75 805 c 1
 209 805 l 1
 431 730 582 602 666 420 c 1
 736 420 l 1
 736 267 l 1
 841 161 l 1
 736 55 l 1
 736 -100 l 1
 666 -100 l 1
 582 -281 431 -409 209 -484 c 1
 75 -484 l 1
186 161 m 1
 268 76 l 1
 268 -48 l 1
 391 -48 l 1
 476 -131 l 1
 561 -48 l 1
 684 -48 l 1
 684 76 l 1
 768 161 l 1
 684 245 l 1
 684 368 l 1
 561 368 l 1
 476 453 l 1
 391 368 l 1
 268 368 l 1
 268 245 l 1
 186 161 l 1
197 -432 m 1
 201 -432 l 1
 398 -364 534 -254 612 -100 c 1
 583 -100 l 1
 476 -205 l 1
 390 -120 l 1
 347 -237 283 -341 197 -432 c 1
197 754 m 1
 284 658 348 552 390 439 c 1
 476 524 l 1
 583 420 l 1
 612 420 l 1
 531 576 394 688 201 754 c 1
 197 754 l 1
478 -12 m 0
 381 -12 304 65 304 162 c 0
 304 259 378 335 475 335 c 0
 573 335 647 258 647 160 c 0
 647 63 575 -12 478 -12 c 0
358 161 m 1
 476 43 l 1
 596 161 l 1
 476 282 l 1
 358 161 l 1
EndSplineSet
Colour: ffda6b
EndChar

StartChar: _.sing.parantez_tazeeni.left
Encoding: 65640 -1 104
GlifName: _.sing.parantez_tazeeni.left
Width: 916
VWidth: 0
GlyphClass: 2
Flags: HMW
LayerCount: 2
Fore
SplineSet
75 161 m 1
 180 267 l 1
 180 420 l 1
 250 420 l 1
 334 602 485 730 707 805 c 1
 841 805 l 1
 731 696 636 567 576 420 c 1
 699 420 l 1
 699 267 l 1
 805 161 l 1
 699 55 l 1
 699 -100 l 1
 576 -100 l 1
 630 -238 718 -367 841 -484 c 1
 707 -484 l 1
 485 -409 334 -281 250 -100 c 1
 180 -100 l 1
 180 55 l 1
 75 161 l 1
148 161 m 1
 231 76 l 1
 231 -48 l 1
 354 -48 l 1
 439 -131 l 1
 524 -48 l 1
 647 -48 l 1
 647 76 l 1
 730 161 l 1
 647 245 l 1
 647 368 l 1
 524 368 l 1
 439 453 l 1
 354 368 l 1
 231 368 l 1
 231 245 l 1
 148 161 l 1
438 -12 m 0
 341 -12 268 63 268 160 c 0
 268 258 343 335 441 335 c 0
 538 335 612 259 612 162 c 0
 612 65 535 -12 438 -12 c 0
304 -100 m 1
 382 -254 518 -364 715 -432 c 1
 719 -432 l 1
 633 -341 569 -237 526 -120 c 1
 439 -205 l 1
 332 -100 l 1
 304 -100 l 1
304 420 m 1
 332 420 l 1
 439 524 l 1
 526 439 l 1
 568 552 632 658 719 754 c 1
 715 754 l 1
 522 688 385 576 304 420 c 1
320 161 m 1
 439 43 l 1
 558 161 l 1
 439 282 l 1
 320 161 l 1
EndSplineSet
Colour: ffda6b
EndChar

StartChar: _.sing.koroshe.right
Encoding: 65641 -1 105
GlifName: _.sing.koroshe.right
Width: 395
VWidth: 1197
GlyphClass: 2
Flags: HMW
LayerCount: 2
Fore
SplineSet
75 -301 m 1
 75 800 l 1
 295 800 l 2
 312 800 320 775 320 750 c 0
 320 725 312 700 295 700 c 2
 173 700 l 1
 173 -200 l 1
 295 -200 l 2
 312 -200 320 -225 320 -250 c 0
 320 -275 312 -301 295 -301 c 2
 75 -301 l 1
EndSplineSet
Colour: ffda6b
EndChar

StartChar: _.sing.koroshe.left
Encoding: 65642 -1 106
GlifName: _.sing.koroshe.left
Width: 397
VWidth: 1197
GlyphClass: 2
Flags: HMW
LayerCount: 2
Fore
SplineSet
75 -250 m 0
 75 -225 83 -200 100 -200 c 2
 222 -200 l 1
 222 700 l 1
 100 700 l 2
 83 700 75 725 75 750 c 0
 75 775 83 800 100 800 c 2
 322 800 l 1
 322 -301 l 1
 100 -301 l 2
 83 -301 75 -275 75 -250 c 0
EndSplineSet
Colour: ffda6b
EndChar

StartChar: _.sing.akolad.right
Encoding: 65643 -1 107
GlifName: _.sing.akolad.right
Width: 570
VWidth: 1197
GlyphClass: 2
Flags: HMW
LayerCount: 2
Fore
SplineSet
243 122 m 0
 243 210 227 220 75 220 c 1
 75 320 l 1
 227 320 243 329 243 416 c 0
 243 466 240 555 240 605 c 0
 242 797 323 800 495 800 c 1
 495 725 l 1
 489 725 483 725 477 725 c 0
 376 725 337 722 337 602 c 0
 337 548 338 424 338 391 c 0
 337 309 274 279 219 269 c 1
 274 260 337 230 338 149 c 0
 338 115 337 -18 337 -72 c 0
 337 -193 376 -196 477 -196 c 0
 483 -196 489 -196 495 -196 c 1
 495 -271 l 1
 323 -271 242 -267 240 -75 c 0
 240 -25 243 71 243 122 c 0
EndSplineSet
Colour: ffda6b
EndChar

StartChar: _.sing.akolad.left
Encoding: 65644 -1 108
GlifName: _.sing.akolad.left
Width: 571
VWidth: 1197
GlyphClass: 2
Flags: HMW
LayerCount: 2
Fore
SplineSet
496 220 m 1
 352 220 327 211 327 133 c 0
 327 85 330 -21 330 -75 c 0
 329 -267 249 -271 75 -271 c 1
 75 -196 l 1
 81 -196 87 -196 93 -196 c 0
 195 -196 234 -193 234 -72 c 0
 234 -18 233 115 233 149 c 0
 234 230 297 260 352 269 c 1
 297 279 234 309 233 391 c 0
 233 424 234 548 234 602 c 0
 234 722 195 725 93 725 c 0
 87 725 81 725 75 725 c 1
 75 800 l 1
 249 800 329 797 330 605 c 0
 330 551 327 453 327 406 c 0
 327 328 352 320 496 320 c 1
 496 220 l 1
EndSplineSet
Colour: ffda6b
EndChar

StartChar: _.mark.maad
Encoding: 65645 -1 109
GlifName: _.mark.maad
Width: 0
VWidth: 1352
GlyphClass: 2
Flags: HMW
LayerCount: 2
Fore
SplineSet
0 -1 m 0
 0 61 6 107 20 141 c 0
 31 172 38 181 51 181 c 0
 59 181 70 178 86 175 c 0
 135 165 179 160 220 160 c 0
 272 160 329 173 389 199 c 0
 392 201 396 202 399 202 c 0
 418 202 437 176 437 152 c 0
 437 139 432 127 419 119 c 1
 355 87 287 71 217 71 c 0
 181 71 146 75 110 84 c 1
 90 72 80 43 80 -1 c 0
 79 -17 60 -25 41 -25 c 0
 21 -25 0 -17 0 -1 c 0
EndSplineSet
Colour: ffda6b
EndChar

StartChar: _.mark.fatheh
Encoding: 65646 -1 110
GlifName: _.mark.fatheh
Width: 0
VWidth: 2310
GlyphClass: 2
Flags: HMW
LayerCount: 2
Fore
SplineSet
0 6 m 1
 0 84 l 1
 283 193 l 1
 283 118 l 1
 0 6 l 1
EndSplineSet
Colour: ffda6b
EndChar

StartChar: _.mark.kasreh
Encoding: 65647 -1 111
GlifName: _.mark.kasreh
Width: 0
VWidth: 2384
GlyphClass: 2
Flags: HMW
LayerCount: 2
Fore
SplineSet
0 -106 m 1
 283 4 l 1
 283 -72 l 1
 0 -185 l 1
 0 -106 l 1
EndSplineSet
Colour: ffda6b
EndChar

StartChar: _.mark.zameh
Encoding: 65648 -1 112
GlifName: _.mark.zameh
Width: 0
VWidth: 2277
GlyphClass: 2
Flags: HMW
LayerCount: 2
Fore
SplineSet
251 204 m 1
 263 199 283 196 298 191 c 1
 283 124 l 1
 268 129 l 2
 246 136 229 144 215 150 c 1
 171 91 104 44 18 10 c 1
 0 4 l 1
 0 86 l 1
 10 86 l 1
 67 100 114 129 155 170 c 1
 116 184 85 200 64 221 c 1
 59 225 l 1
 59 231 l 1
 61 323 114 385 203 390 c 0
 205 390 209 390 211 390 c 1
 242 376 267 329 267 282 c 0
 267 261 261 235 251 204 c 1
121 262 m 1
 131 255 144 247 162 240 c 0
 177 235 189 231 196 229 c 1
 203 241 206 253 206 263 c 0
 206 289 197 307 179 314 c 1
 142 314 130 294 121 262 c 1
EndSplineSet
Colour: ffda6b
EndChar

StartChar: _.mark.tanvin_fatheh
Encoding: 65649 -1 113
GlifName: _.mark.tanvin_fatheh
Width: 0
VWidth: 2280
GlyphClass: 2
Flags: HMW
LayerCount: 2
Fore
SplineSet
0 4 m 1
 0 80 l 1
 286 193 l 1
 286 116 l 1
 0 4 l 1
0 140 m 1
 0 218 l 1
 286 330 l 1
 286 253 l 1
 0 140 l 1
EndSplineSet
Colour: ffda6b
EndChar

StartChar: _.mark.tanvin_kasreh
Encoding: 65650 -1 114
GlifName: _.mark.tanvin_kasreh
Width: 0
VWidth: 2413
GlyphClass: 2
Flags: HMW
LayerCount: 2
Fore
SplineSet
0 -112 m 1
 286 -0 l 1
 286 -77 l 1
 0 -190 l 1
 0 -112 l 1
0 -250 m 1
 286 -137 l 1
 286 -214 l 1
 0 -326 l 1
 0 -250 l 1
EndSplineSet
Colour: ffda6b
EndChar

StartChar: _.mark.tanvin_zameh
Encoding: 65651 -1 115
GlifName: _.mark.tanvin_zameh
Width: 0
VWidth: 2273
GlyphClass: 2
Flags: HMW
LayerCount: 2
Fore
SplineSet
285 385 m 0
 342 385 362 337 362 285 c 0
 362 255 355 224 343 202 c 1
 378 194 l 1
 378 123 l 1
 310 144 l 1
 266 82 184 29 74 -4 c 1
 49 58 l 1
 69 64 90 72 110 81 c 1
 109 122 84 145 49 145 c 0
 40 145 31 143 21 140 c 1
 0 193 l 1
 21 200 40 204 58 204 c 0
 107 204 144 175 160 104 c 1
 197 125 229 148 246 166 c 1
 199 177 172 186 144 224 c 1
 153 266 163 296 177 316 c 0
 206 354 240 385 285 385 c 0
209 253 m 1
 231 235 261 229 284 220 c 1
 292 233 298 251 298 268 c 0
 298 286 291 303 272 312 c 1
 234 310 221 285 209 253 c 1
EndSplineSet
Colour: ffda6b
EndChar

StartChar: _.mark.tashdid
Encoding: 65652 -1 116
GlifName: _.mark.tashdid
Width: 0
VWidth: 1833
GlyphClass: 2
Flags: HMW
LayerCount: 2
Fore
SplineSet
0 116 m 2
 0 167 l 1
 57 181 l 1
 57 117 l 2
 57 78 68 58 91 58 c 0
 119 58 133 89 133 149 c 2
 133 204 l 1
 190 224 l 1
 190 149 l 2
 190 116 202 98 225 98 c 0
 251 98 263 114 263 145 c 0
 263 149 261 182 257 248 c 1
 316 261 l 1
 323 151 l 1
 323 71 291 32 229 32 c 0
 204 32 184 43 167 64 c 1
 149 25 122 1 90 1 c 0
 30 1 0 40 0 116 c 2
EndSplineSet
Colour: ffda6b
EndChar

StartChar: _.mark.hamze
Encoding: 65653 -1 117
GlifName: _.mark.hamze
Width: 0
VWidth: 1841
GlyphClass: 2
Flags: HMW
LayerCount: 2
Fore
SplineSet
0 64 m 1
 42 84 66 95 76 100 c 1
 48 122 36 152 36 183 c 0
 36 244 84 306 149 306 c 0
 182 306 219 290 257 250 c 1
 217 205 l 1
 199 226 176 235 155 235 c 0
 122 235 92 214 92 188 c 0
 92 169 109 147 154 129 c 1
 180 138 219 147 271 157 c 1
 281 90 l 1
 222 78 181 67 160 60 c 0
 138 53 92 33 23 1 c 1
 0 64 l 1
EndSplineSet
Colour: ffda6b
EndChar

StartChar: _.mark.sakon
Encoding: 65654 -1 118
GlifName: _.mark.sakon
Width: 0
VWidth: 2099
GlyphClass: 2
Flags: HMW
LayerCount: 2
Fore
SplineSet
0 101 m 0
 0 176 30 233 92 271 c 0
 97 273 96 273 102 272 c 0
 172 255 240 198 240 119 c 0
 240 41 183 0 108 -0 c 0
 55 0 0 48 0 101 c 0
63 109 m 0
 63 88 81 77 119 77 c 0
 145 77 166 86 183 101 c 1
 183 153 139 179 102 196 c 1
 75 176 63 147 63 109 c 0
EndSplineSet
Colour: ffda6b
EndChar

StartChar: _.mark.alef
Encoding: 65655 -1 119
GlifName: _.mark.alef
Width: 0
VWidth: 2091
GlyphClass: 2
Flags: HMW
LayerCount: 2
Fore
SplineSet
0 194 m 1
 58 248 l 1
 65 237 l 1
 101 180 111 134 111 81 c 0
 111 56 109 30 106 -0 c 1
 55 -0 l 1
 55 69 44 127 5 186 c 1
 0 194 l 1
EndSplineSet
Colour: ffda6b
EndChar

StartChar: _.sing.momaiez
Encoding: 65656 -1 120
GlifName: _.sing.momaiez
Width: 519
VWidth: 1352
GlyphClass: 2
Flags: HMW
LayerCount: 2
Fore
SplineSet
75 -179 m 0
 75 -170 78 -161 86 -152 c 1
 198 31 305 219 351 393 c 0
 357 414 376 422 395 422 c 0
 419 422 444 408 444 385 c 0
 444 380 443 374 440 368 c 0
 371 150 231 -106 153 -209 c 0
 144 -220 133 -224 122 -224 c 0
 98 -224 75 -203 75 -179 c 0
EndSplineSet
Colour: ffda6b
EndChar

StartChar: _.sing.hezare
Encoding: 65657 -1 121
GlifName: _.sing.hezare
Width: 252
VWidth: 1197
GlyphClass: 2
Flags: HMW
LayerCount: 2
Fore
SplineSet
75 862 m 0
 75 893 101 908 127 908 c 0
 152 908 177 894 177 862 c 0
 177 818 155 773 155 729 c 0
 155 690 140 670 125 670 c 0
 110 670 95 690 95 729 c 0
 95 773 75 818 75 862 c 0
EndSplineSet
Colour: ffda6b
EndChar

StartChar: _.sing.darsad
Encoding: 65658 -1 122
GlifName: _.sing.darsad
Width: 691
VWidth: 1197
GlyphClass: 2
Flags: HMW
LayerCount: 2
Fore
SplineSet
75 30 m 0
 75 32 75 34 76 36 c 2
 519 704 l 2
 524 710 532 712 542 712 c 0
 571 712 613 692 613 672 c 0
 613 669 612 665 609 662 c 2
 173 -0 l 2
 171 -4 163 -6 151 -6 c 0
 122 -6 75 6 75 30 c 0
86 519 m 0
 86 529 90 538 97 545 c 2
 134 583 l 2
 141 590 150 594 160 594 c 0
 170 594 180 590 187 583 c 2
 225 545 l 2
 232 538 236 529 236 519 c 0
 236 509 232 499 225 492 c 2
 187 455 l 2
 180 448 170 444 160 444 c 0
 150 444 141 448 134 455 c 2
 97 492 l 2
 90 499 86 509 86 519 c 0
466 173 m 0
 466 183 470 192 477 199 c 2
 514 237 l 2
 521 244 531 248 541 248 c 0
 551 248 560 244 567 237 c 2
 605 199 l 2
 612 192 616 183 616 173 c 0
 616 163 612 153 605 146 c 2
 567 108 l 2
 560 101 551 98 541 98 c 0
 531 98 521 101 514 108 c 2
 477 146 l 2
 470 153 466 163 466 173 c 0
EndSplineSet
Colour: ffda6b
EndChar

StartChar: _.sing.mosavi
Encoding: 65659 -1 123
GlifName: _.sing.mosavi
Width: 659
VWidth: 1197
GlyphClass: 2
Flags: HMW
LayerCount: 2
Fore
SplineSet
75 250 m 0
 75 275 95 300 134 300 c 2
 537 300 l 2
 568 300 584 274 584 249 c 0
 584 224 569 199 537 198 c 1
 134 198 l 1
 95 199 75 225 75 250 c 0
75 450 m 0
 75 475 95 500 134 500 c 2
 537 500 l 2
 568 500 584 474 584 449 c 0
 584 424 569 400 537 399 c 2
 134 399 l 2
 95 400 75 425 75 450 c 0
EndSplineSet
Colour: ffda6b
EndChar

StartChar: _.sing.star5par
Encoding: 65660 -1 124
GlifName: _.sing.5par
Width: 704
VWidth: 1197
GlyphClass: 2
Flags: HMW
LayerCount: 2
Fore
SplineSet
225 2 m 0
 184 2 154 29 154 66 c 0
 154 83 158 99 167 111 c 2
 240 212 l 1
 122 250 l 2
 90 260 75 282 75 316 c 0
 75 349 102 383 135 383 c 0
 149 383 159 382 165 380 c 2
 284 341 l 1
 284 468 l 2
 284 510 318 535 352 535 c 0
 388 535 421 505 421 468 c 2
 421 341 l 1
 539 380 l 2
 546 382 556 383 570 383 c 0
 601 383 629 350 629 316 c 0
 629 282 613 260 582 250 c 2
 462 212 l 1
 535 111 l 2
 545 98 549 83 549 69 c 0
 549 33 519 2 478 2 c 0
 458 2 441 11 426 29 c 1
 352 133 l 1
 277 29 l 2
 263 11 246 2 225 2 c 0
EndSplineSet
Colour: ffda6b
EndChar

StartChar: _.beh_k.init
Encoding: 65661 -1 125
GlifName: _.beh_k.init
Width: 384
VWidth: 1197
GlyphClass: 2
UnlinkRmOvrlpSave: 1
Flags: HMW
LayerCount: 2
Fore
SplineSet
-50 50 m 0
 -49 75 -26 100 -1 100 c 2
 46 100 l 2
 174 100 213 141 213 203 c 0
 213 253 188 316 163 383 c 0
 162 385 162 386 162 388 c 0
 162 410 204 434 232 434 c 0
 243 434 251 430 255 422 c 0
 286 343 309 264 309 197 c 0
 309 82 244 0 45 -0 c 2
 -1 -0 l 1
 -26 1 -50 24 -50 50 c 0
EndSplineSet
Colour: ffda6b
EndChar

StartChar: _.beh_k.medi
Encoding: 65662 -1 126
GlifName: _.beh_k.medi
Width: 463
VWidth: 1304
GlyphClass: 2
UnlinkRmOvrlpSave: 1
Flags: HMW
LayerCount: 2
Fore
SplineSet
-50 50 m 0
 -50 76 -26 100 0 100 c 2
 73 100 l 2
 175 100 232 154 250 246 c 2
 263 306 l 2
 266 322 279 329 295 329 c 0
 321 329 353 310 350 290 c 2
 339 228 l 2
 334 200 327 174 317 149 c 1
 347 117 389 100 447 100 c 2
 463 100 l 1
 463 -0 l 1
 426 -0 l 2
 353 0 299 24 260 63 c 1
 221 24 167 0 93 -0 c 2
 0 -0 l 2
 -25 0 -50 24 -50 50 c 0
EndSplineSet
Colour: ffda6b
EndChar

StartChar: _.sing.3noqte
Encoding: 65663 -1 127
GlifName: _.sing.3noqte
Width: 780
VWidth: 1304
GlyphClass: 2
Flags: HMW
LayerCount: 2
Fore
SplineSet
75 75 m 0
 75 85 79 94 86 101 c 2
 124 139 l 2
 131 146 141 150 151 150 c 0
 161 150 170 146 177 139 c 2
 214 101 l 2
 221 94 225 85 225 75 c 0
 225 65 221 55 214 48 c 2
 177 11 l 2
 170 4 161 0 151 -0 c 0
 141 0 131 4 124 11 c 2
 86 48 l 2
 79 55 75 65 75 75 c 0
327 75 m 0
 327 85 331 94 338 101 c 2
 375 139 l 2
 382 146 392 150 402 150 c 0
 412 150 421 146 428 139 c 2
 466 101 l 2
 473 94 478 85 478 75 c 0
 478 65 473 55 466 48 c 2
 428 11 l 2
 421 4 412 0 402 -0 c 0
 392 0 382 4 375 11 c 2
 338 48 l 2
 331 55 327 65 327 75 c 0
555 75 m 0
 555 85 559 94 566 101 c 2
 604 139 l 2
 611 146 620 150 630 150 c 0
 640 150 650 146 657 139 c 2
 694 101 l 2
 701 94 705 85 705 75 c 0
 705 65 701 55 694 48 c 2
 657 11 l 2
 650 4 640 0 630 -0 c 0
 620 0 611 4 604 11 c 2
 566 48 l 2
 559 55 555 65 555 75 c 0
EndSplineSet
Colour: ffda6b
EndChar

StartChar: s.khat_tire
Encoding: 8208 8208 138
GlifName: s.khat_tire
Width: 504
VWidth: 0
GlyphClass: 2
Flags: HMW
LayerCount: 2
Fore
SplineSet
55 229 m 1
 55 307 l 1
 451 307 l 1
 451 229 l 1
 55 229 l 1
EndSplineSet
Colour: d7d7d7
EndChar

StartChar: s.zwj
Encoding: 8205 8205 174
GlifName: s.zwj
Width: 0
VWidth: 1331
GlyphClass: 2
Flags: HMW
LayerCount: 2
Fore
SplineSet
25 -327 m 1
 -25 -327 l 1
 -25 579 l 1
 -111 491 l 1
 -141 521 l 1
 -30 631 l 1
 -141 740 l 1
 -111 772 l 1
 0 660 l 1
 111 772 l 1
 141 740 l 1
 30 631 l 1
 141 521 l 1
 111 491 l 1
 25 579 l 1
 25 -327 l 1
EndSplineSet
Colour: d7d7d7
EndChar

StartChar: s.tagsim
Encoding: 247 247 182
GlifName: s.tagsim
Width: 564
VWidth: 1278
GlyphClass: 2
Flags: HMW
LayerCount: 2
Fore
SplineSet
59 352 m 1
 59 429 l 1
 506 429 l 1
 506 352 l 1
 59 352 l 1
234 204 m 1
 234 299 l 1
 330 299 l 1
 330 204 l 1
 234 204 l 1
234 482 m 1
 234 577 l 1
 330 577 l 1
 330 482 l 1
 234 482 l 1
EndSplineSet
Colour: d7d7d7
EndChar

StartChar: s.zwnj
Encoding: 8204 8204 215
GlifName: s.zwnj
Width: 0
VWidth: 1331
GlyphClass: 2
Flags: HMW
LayerCount: 2
Fore
SplineSet
-25 -308 m 1
 -25 710 l 1
 25 710 l 1
 25 -308 l 1
 -25 -308 l 1
EndSplineSet
Colour: d7d7d7
EndChar

StartChar: s.dotted_circle
Encoding: 9676 9676 220
GlifName: s.dotted_circle
Width: 576
VWidth: 1890
GlyphClass: 2
Flags: HMW
LayerCount: 2
Fore
SplineSet
60 181 m 0
 60 196 67 203 82 203 c 0
 97 203 104 196 104 182 c 2
 104 180 l 2
 104 166 97 159 82 159 c 0
 67 159 60 166 60 181 c 0
76 103 m 0
 76 118 83 126 98 126 c 0
 113 126 120 118 120 103 c 0
 120 88 113 80 98 80 c 0
 83 80 76 88 76 103 c 0
76 259 m 0
 76 274 83 282 98 282 c 0
 113 282 120 274 120 259 c 0
 120 244 113 236 99 236 c 0
 84 236 76 244 76 259 c 0
120 34 m 0
 120 49 127 56 142 57 c 0
 157 56 164 49 165 34 c 0
 164 19 157 12 142 12 c 0
 127 12 120 19 120 34 c 0
120 326 m 0
 120 341 127 348 142 349 c 0
 157 348 164 341 165 326 c 0
 164 311 157 304 142 304 c 0
 127 304 120 311 120 326 c 0
187 -8 m 0
 187 7 195 14 210 14 c 0
 225 14 233 7 233 -8 c 0
 233 -23 225 -30 210 -30 c 0
 195 -30 187 -23 187 -8 c 0
187 372 m 0
 187 387 195 394 210 394 c 0
 225 394 233 387 233 372 c 0
 233 357 225 350 210 350 c 0
 195 350 187 357 187 372 c 0
310 -26 m 0
 310 -41 303 -48 288 -48 c 0
 273 -48 266 -41 265 -26 c 0
 266 -11 273 -4 288 -3 c 0
 303 -4 310 -11 310 -26 c 0
288 410 m 0
 303 410 310 403 310 388 c 0
 310 373 303 366 288 365 c 0
 273 366 266 373 265 388 c 0
 266 403 273 410 288 410 c 0
344 -8 m 0
 344 7 352 14 367 14 c 0
 382 14 390 7 390 -8 c 0
 390 -22 382 -30 367 -31 c 0
 352 -30 344 -22 344 -8 c 0
344 372 m 0
 344 387 352 394 367 394 c 0
 382 394 390 387 390 372 c 0
 390 358 382 350 367 349 c 0
 352 350 344 358 344 372 c 0
412 34 m 0
 412 49 419 56 434 57 c 0
 449 56 456 49 456 34 c 0
 456 19 449 12 434 12 c 0
 419 12 412 19 412 34 c 0
412 326 m 0
 412 341 419 348 434 349 c 0
 449 348 456 341 456 326 c 0
 456 311 449 304 434 304 c 0
 419 304 412 311 412 326 c 0
456 103 m 0
 456 118 463 126 478 126 c 0
 492 126 500 118 501 103 c 0
 500 88 492 80 478 80 c 0
 463 80 456 88 456 103 c 0
456 259 m 0
 456 274 463 282 478 282 c 0
 492 282 500 274 501 259 c 0
 500 244 492 236 478 236 c 0
 463 236 456 244 456 259 c 0
472 181 m 0
 472 196 479 203 494 203 c 0
 509 203 516 196 517 182 c 2
 517 180 l 2
 516 166 509 159 494 159 c 0
 479 159 472 166 472 181 c 0
EndSplineSet
Colour: d7d7d7
EndChar

StartChar: s.figure_dash
Encoding: 8210 8210 224
GlifName: s.figure_dash
Width: 600
VWidth: 0
GlyphClass: 2
Flags: HMW
LayerCount: 2
Fore
SplineSet
55 229 m 1
 55 307 l 1
 547 307 l 1
 547 229 l 1
 55 229 l 1
EndSplineSet
Colour: d7d7d7
EndChar

StartChar: s.em_dash
Encoding: 8212 8212 263
GlifName: s.em_dash
Width: 1200
VWidth: 1175
GlyphClass: 2
Flags: HMW
LayerCount: 2
Fore
SplineSet
55 229 m 1
 55 307 l 1
 1147 307 l 1
 1147 229 l 1
 55 229 l 1
EndSplineSet
Colour: d7d7d7
EndChar

StartChar: s.bullet
Encoding: 8226 8226 278
GlifName: s.bullet
Width: 602
VWidth: 1331
GlyphClass: 2
Flags: HMW
LayerCount: 2
Fore
SplineSet
532 432 m 0
 532 369 509 315 464 270 c 0
 419 225 365 202 302 202 c 0
 245 202 194 223 147 266 c 0
 100 309 77 357 77 410 c 0
 77 483 99 542 142 585 c 0
 185 628 236 650 295 650 c 0
 368 650 426 630 468 591 c 0
 510 552 532 499 532 432 c 0
EndSplineSet
Colour: d7d7d7
EndChar

StartChar: s.en_dash
Encoding: 8211 8211 310
GlifName: s.en_dash
Width: 600
VWidth: 1175
GlyphClass: 2
Flags: HMW
LayerCount: 2
Fore
SplineSet
55 229 m 1
 55 307 l 1
 547 307 l 1
 547 229 l 1
 55 229 l 1
EndSplineSet
Colour: d7d7d7
EndChar

StartChar: s.horizontal_bar
Encoding: 8213 8213 316
GlifName: s.horizontal_bar
Width: 2400
VWidth: 1175
GlyphClass: 2
Flags: HMW
LayerCount: 2
Fore
SplineSet
55 229 m 1
 55 307 l 1
 2347 307 l 1
 2347 229 l 1
 55 229 l 1
EndSplineSet
Colour: d7d7d7
EndChar

StartChar: s.lrm
Encoding: 8206 8206 317
GlifName: s.lrm
Width: 0
VWidth: 1331
GlyphClass: 2
Flags: HMW
LayerCount: 2
Fore
SplineSet
-25 -308 m 1
 -25 676 l 1
 196 676 l 1
 106 759 l 1
 138 790 l 1
 280 651 l 1
 138 510 l 1
 106 544 l 1
 196 628 l 1
 22 628 l 1
 22 -308 l 1
 -25 -308 l 1
EndSplineSet
Colour: d7d7d7
EndChar

StartChar: s.rlm
Encoding: 8207 8207 346
GlifName: s.rlm
Width: 0
VWidth: 1331
GlyphClass: 2
Flags: HMW
LayerCount: 2
Fore
SplineSet
22 676 m 1
 22 -308 l 1
 -25 -308 l 1
 -25 628 l 1
 -196 628 l 1
 -108 544 l 1
 -138 510 l 1
 -280 651 l 1
 -138 790 l 1
 -108 759 l 1
 -196 676 l 1
 22 676 l 1
EndSplineSet
Colour: d7d7d7
EndChar

StartChar: _.sing.yeh_domBoride
Encoding: 65664 -1 400
GlifName: _.mark.he_yeh
Width: 406
VWidth: 1304
GlyphClass: 1
UnlinkRmOvrlpSave: 1
Flags: HMW
LayerCount: 2
Fore
SplineSet
75 71 m 0
 75 89 80 105 92 105 c 0
 95 105 98 104 102 102 c 0
 131 79 164 71 191 71 c 0
 230 71 260 88 260 104 c 0
 260 111 253 119 238 124 c 0
 207 131 174 149 173 199 c 0
 173 277 249 319 312 320 c 1
 320 317 326 301 326 284 c 0
 326 269 321 253 312 246 c 1
 250 246 235 225 234 204 c 0
 234 190 235 189 277 177 c 0
 314 167 331 142 331 113 c 0
 331 63 278 3 190 3 c 0
 160 3 125 10 87 27 c 1
 79 37 75 55 75 71 c 0
EndSplineSet
EndChar

StartChar: uni0000
Encoding: 0 0 401
GlifName: uni0000
Width: 497
VWidth: 0
GlyphClass: 2
Flags: HMW
LayerCount: 2
Fore
SplineSet
59 -251 m 1
 59 709 l 1
 438 709 l 1
 438 -251 l 1
 59 -251 l 1
105 -181 m 1
 387 -181 l 1
 387 648 l 1
 105 648 l 1
 105 -181 l 1
EndSplineSet
EndChar

StartChar: _.ghaf.medi
Encoding: 65665 -1 402
GlifName: _.ghaf.medi
Width: 620
VWidth: 0
GlyphClass: 2
Flags: HMW
LayerCount: 2
Fore
SplineSet
284 226 m 1
 284 362 87 443 24 479 c 1
 41 577 45 591 83 618 c 0
 181 683 339 758 472 800 c 0
 479 803 485 804 490 804 c 0
 512 804 518 783 518 760 c 0
 518 741 513 720 510 708 c 1
 384 670 243 605 129 537 c 1
 171 514 220 485 263 449 c 1
 263 448 l 1
 275 438 287 427 298 415 c 0
 441 272 471 100 620 100 c 1
 620 -0 l 1
 490 0 443 64 372 165 c 1
 331 23 141 0 7 -0 c 2
 -1 -0 l 2
 -25 0 -50 24 -50 49 c 0
 -50 75 -27 100 -1 100 c 2
 14 100 l 2
 108 100 277 112 284 226 c 1
74 777 m 1
 188 850 223 862 366 911 c 0
 367 911 367 911 368 911 c 0
 390 911 385 866 387 848 c 1
 261 804 217 789 101 715 c 0
 99 714 98 713 97 713 c 0
 84 713 74 754 74 773 c 0
 74 775 74 776 74 777 c 1
EndSplineSet
Colour: ffda6b
EndChar

StartChar: _.ghaf.init
Encoding: 65666 -1 403
GlifName: _.ghaf.init
Width: 593
VWidth: 0
GlyphClass: 2
Flags: HMW
LayerCount: 2
Fore
SplineSet
-50 49 m 0
 -50 75 -27 100 -1 100 c 2
 14 100 l 2
 108 100 277 112 284 226 c 1
 284 227 l 0
 284 364 79 448 24 479 c 1
 41 577 45 591 83 618 c 0
 181 683 339 758 472 800 c 0
 479 803 485 804 490 804 c 0
 512 804 518 783 518 760 c 0
 518 741 513 720 510 708 c 1
 384 670 243 605 129 537 c 1
 237 478 381 384 381 225 c 0
 381 30 160 0 7 -0 c 2
 -1 -0 l 2
 -25 0 -50 24 -50 49 c 0
74 777 m 1
 188 850 223 862 366 911 c 0
 367 911 367 911 368 911 c 0
 390 911 385 866 387 848 c 1
 261 804 217 789 101 715 c 0
 99 714 98 713 97 713 c 0
 84 713 74 754 74 773 c 0
 74 775 74 776 74 777 c 1
EndSplineSet
Colour: ffda6b
EndChar

StartChar: _.la.isol.fa
Encoding: 65667 -1 404
Width: 649
VWidth: 0
Flags: HMW
LayerCount: 2
Fore
SplineSet
75 631 m 0
 75 652 114 681 139 681 c 0
 144 681 148 680 150 677 c 0
 279 479 346 355 346 196 c 0
 346 193 346 189 346 186 c 0
 346 169 308 151 284 151 c 0
 276 151 269 154 267 159 c 1
 267 164 268 168 268 173 c 0
 268 330 174 484 77 625 c 0
 76 627 75 629 75 631 c 0
116 61 m 0
 116 88 128 122 148 122 c 0
 150 122 151 122 153 122 c 0
 208 106 255 99 296 99 c 0
 422 99 482 167 484 257 c 1
 484 780 l 2
 484 790 506 800 528 800 c 0
 550 800 574 790 574 780 c 2
 574 284 l 2
 574 77 467 -2 315 -2 c 0
 258 -2 196 9 130 28 c 0
 121 31 116 45 116 61 c 0
EndSplineSet
Colour: ffda6b
EndChar

StartChar: _.la.fina.fa
Encoding: 65668 -1 405
Width: 744
VWidth: 0
Flags: HMW
LayerCount: 2
Fore
SplineSet
75 631 m 0
 75 652 114 681 139 681 c 0
 144 681 148 680 150 677 c 0
 279 479 346 355 346 196 c 0
 346 193 346 189 346 186 c 0
 346 169 308 151 284 151 c 0
 276 151 269 154 267 159 c 1
 267 164 268 168 268 173 c 0
 268 330 174 484 77 625 c 0
 76 627 75 629 75 631 c 0
116 61 m 0
 116 88 128 122 148 122 c 0
 150 122 151 122 153 122 c 0
 208 106 255 99 296 99 c 0
 422 99 482 167 484 257 c 1
 484 780 l 2
 484 790 506 800 528 800 c 0
 550 800 574 790 574 780 c 2
 574 405 l 1
 578 223 610 100 744 100 c 1
 744 -0 l 1
 636 0 572 44 535 106 c 1
 491 30 412 -2 315 -2 c 0
 258 -2 196 9 130 28 c 0
 121 31 116 45 116 61 c 0
EndSplineSet
Colour: ffda6b
EndChar

StartChar: _.sing.alef_maad
Encoding: 65671 -1 408
Width: 592
VWidth: 1352
Flags: HMW
LayerCount: 2
Fore
SplineSet
75 14 m 0
 75 28 81 43 95 53 c 0
 153 95 186 100 235 100 c 0
 252 100 272 100 295 100 c 0
 312 100 327 99 342 99 c 0
 379 99 410 104 441 144 c 0
 448 153 457 157 466 157 c 0
 490 157 517 130 517 104 c 0
 517 97 515 89 510 82 c 0
 452 7 418 -1 353 -1 c 0
 335 -1 314 0 290 -0 c 0
 275 0 261 0 248 0 c 0
 212 0 179 -3 144 -27 c 0
 136 -33 127 -36 119 -36 c 0
 95 -36 75 -12 75 14 c 0
EndSplineSet
Colour: ffda6b
EndChar

StartChar: _.sing.star
Encoding: 65672 -1 409
Width: 623
VWidth: 1197
Flags: HMW
LayerCount: 2
Fore
SplineSet
75 143 m 1
 265 246 l 1
 75 346 l 1
 107 397 l 1
 283 292 l 1
 283 490 l 1
 342 490 l 1
 342 292 l 1
 518 397 l 1
 548 346 l 1
 361 246 l 1
 548 143 l 1
 518 92 l 1
 342 197 l 1
 342 1 l 1
 283 1 l 1
 283 197 l 1
 107 92 l 1
 75 143 l 1
EndSplineSet
Colour: ffda6b
EndChar

StartChar: _.sing.zarb
Encoding: 65673 -1 410
Width: 461
VWidth: 1279
Flags: HMW
LayerCount: 2
Fore
SplineSet
75 180 m 0
 75 191 80 204 91 215 c 2
 176 300 l 1
 89 388 l 2
 81 396 78 404 78 413 c 0
 78 435 98 456 120 456 c 0
 129 456 137 452 145 445 c 2
 233 358 l 1
 315 441 l 2
 323 448 331 451 340 451 c 0
 362 451 384 431 384 409 c 0
 384 401 380 392 373 384 c 2
 289 300 l 1
 371 220 l 2
 382 209 386 197 386 186 c 0
 386 165 369 147 348 147 c 0
 337 147 324 153 313 164 c 2
 233 244 l 1
 148 159 l 2
 136 148 124 143 113 143 c 0
 92 143 75 159 75 180 c 0
EndSplineSet
Colour: ffda6b
EndChar

StartChar: _.sing.khateh_amoodi
Encoding: 65674 -1 411
Width: 251
VWidth: 1331
Flags: HMW
LayerCount: 2
Fore
SplineSet
75 1 m 2
 75 294 l 2
 75 325 101 341 126 341 c 0
 151 341 175 326 176 294 c 2
 176 1 l 2
 175 -38 150 -58 125 -58 c 0
 100 -58 75 -38 75 1 c 2
75 501 m 2
 75 753 l 2
 75 784 101 801 126 801 c 0
 151 801 175 785 176 753 c 2
 176 501 l 2
 175 462 150 442 125 442 c 0
 100 442 75 462 75 501 c 2
EndSplineSet
Colour: ffda6b
EndChar

StartChar: _.num.0.ar
Encoding: 65675 -1 412
Width: 400
VWidth: 1424
Flags: HW
LayerCount: 2
Fore
SplineSet
75 241 m 1
 183 377 l 1
 325 271 l 1
 213 130 l 1
 75 241 l 1
EndSplineSet
EndChar
